<svg xmlns="http://www.w3.org/2000/svg" width="1200" height="820" viewBox="0 0 1200 820">
<rect width="1200" height="820" fill="#ecece7"/>
<g font-family="Arial, Helvetica, sans-serif" fill="#191919">
<text x="40" y="48" font-size="27" font-weight="700">Disregard vision</text><text x="40" y="76" font-size="15">Proposed shared iPhone + Android control · one tap returns to the road reference</text>
<text x="40" y="122" font-size="14" font-weight="700">PORTRAIT · UPPER LEFT</text>
<rect x="40" y="139" width="270" height="584" fill="#000"/>
<g transform="translate(55 159) scale(1)" color="#fff"><g fill="none" stroke="currentColor" stroke-width="2" stroke-linecap="round" stroke-linejoin="round"><path d="M2 12 L8 6 Q16 0 24 6 L30 12 L24 18 Q16 24 8 18 Z"/><circle cx="16" cy="12" r="5"/><path d="M5 1 L27 23" stroke="#000" stroke-width="5"/><path d="M5 1 L27 23"/></g></g><path d="M57.519999999999996 321 L118.03999999999999 253.36 M57.519999999999996 321 L118.03999999999999 388.64 M292.48 321 L231.96 253.36 M292.48 321 L231.96 388.64" stroke="white" stroke-width="3" fill="none"/><circle cx="175" cy="321" r="89" fill="#c80c1b" stroke="white" stroke-width="3"/><circle cx="175" cy="321" r="62.3" fill="white"/><text x="175" y="350.37" font-size="89" text-anchor="middle" fill="black" font-weight="700">70</text>
<text x="175" y="536" font-size="91" text-anchor="middle" fill="white">106</text><text x="175" y="572" font-size="23" font-weight="700" text-anchor="middle" fill="white">km/h</text>
<rect x="67" y="599" width="216" height="57" rx="7" fill="#f9e247"/><text x="175" y="620" font-size="17" text-anchor="middle" font-weight="700">A 36</text><text x="175" y="643" font-size="15" text-anchor="middle">Road reference: 110</text>
<circle cx="60" cy="693" r="13" fill="#242424" stroke="white" stroke-width="1"/><text x="60" y="698" text-anchor="middle" font-size="17" fill="#ff3944">●</text><circle cx="118" cy="693" r="13" fill="#242424" stroke="white" stroke-width="1"/><text x="118" y="698" text-anchor="middle" font-size="17" fill="white">♧</text><circle cx="176" cy="693" r="13" fill="#242424" stroke="white" stroke-width="1"/><text x="176" y="698" text-anchor="middle" font-size="17" fill="white">▣</text><circle cx="234" cy="693" r="13" fill="#242424" stroke="white" stroke-width="1"/><text x="234" y="698" text-anchor="middle" font-size="17" fill="white">i</text><circle cx="292" cy="693" r="13" fill="#242424" stroke="white" stroke-width="1"/><text x="292" y="698" text-anchor="middle" font-size="17" fill="white">⚙</text>
<text x="360" y="122" font-size="14" font-weight="700">LANDSCAPE · LOWER LEFT</text>
<rect x="360" y="139" width="800" height="368" fill="#000"/>
<path d="M392.91999999999996 310 L473.84000000000003 219.56 M392.91999999999996 310 L473.84000000000003 400.44 M707.08 310 L626.16 219.56 M707.08 310 L626.16 400.44" stroke="white" stroke-width="3" fill="none"/><circle cx="550" cy="310" r="119" fill="#c80c1b" stroke="white" stroke-width="3"/><circle cx="550" cy="310" r="83.3" fill="white"/><text x="550" y="349.27" font-size="119" text-anchor="middle" fill="black" font-weight="700">70</text><g transform="translate(376 460) scale(1)" color="#fff"><g fill="none" stroke="currentColor" stroke-width="2" stroke-linecap="round" stroke-linejoin="round"><path d="M2 12 L8 6 Q16 0 24 6 L30 12 L24 18 Q16 24 8 18 Z"/><circle cx="16" cy="12" r="5"/><path d="M5 1 L27 23" stroke="#000" stroke-width="5"/><path d="M5 1 L27 23"/></g></g>
<text x="949" y="311" font-size="128" text-anchor="middle" fill="white">106</text><text x="949" y="357" font-size="30" font-weight="700" text-anchor="middle" fill="white">km/h</text>
<rect x="802" y="380" width="294" height="55" rx="7" fill="#f9e247"/><text x="949" y="402" font-size="18" text-anchor="middle" font-weight="700">A 36</text><text x="949" y="424" font-size="15" text-anchor="middle">Road reference: 110</text>
<circle cx="798" cy="474" r="13" fill="#242424" stroke="white" stroke-width="1"/><text x="798" y="479" text-anchor="middle" font-size="17" fill="#ff3944">●</text><circle cx="872" cy="474" r="13" fill="#242424" stroke="white" stroke-width="1"/><text x="872" y="479" text-anchor="middle" font-size="17" fill="white">♧</text><circle cx="946" cy="474" r="13" fill="#242424" stroke="white" stroke-width="1"/><text x="946" y="479" text-anchor="middle" font-size="17" fill="white">▣</text><circle cx="1020" cy="474" r="13" fill="#242424" stroke="white" stroke-width="1"/><text x="1020" y="479" text-anchor="middle" font-size="17" fill="white">i</text><circle cx="1094" cy="474" r="13" fill="#242424" stroke="white" stroke-width="1"/><text x="1094" y="479" text-anchor="middle" font-size="17" fill="white">⚙</text>
<rect x="360" y="538" width="124" height="102" fill="black"/><g transform="translate(374 551) scale(3)" color="#fff"><g fill="none" stroke="currentColor" stroke-width="2" stroke-linecap="round" stroke-linejoin="round"><path d="M2 12 L8 6 Q16 0 24 6 L30 12 L24 18 Q16 24 8 18 Z"/><circle cx="16" cy="12" r="5"/><path d="M5 1 L27 23" stroke="#000" stroke-width="5"/><path d="M5 1 L27 23"/></g></g>
<text x="509" y="557" font-size="18" font-weight="700">Eye contour + centre circle + diagonal strike</text>
<text x="509" y="584" font-size="15">White outline. No fill or enclosing button ring.</text>
<text x="509" y="609" font-size="15">32 × 24 pt glyph · 48 × 48 pt touch target · safe-area inset</text>
<text x="360" y="681" font-size="16" font-weight="700">Tap: drop the current visual evidence; keep TSR running.</text>
<text x="360" y="706" font-size="15">Suppress that same sign track so it cannot immediately return.</text>
<text x="360" y="731" font-size="15">Visible while TSR is active; dim when there is no evidence to dismiss.</text>
<text x="40" y="783" font-size="13" fill="#555">Layout study; values and road label are illustrative. Accessibility name: “Disregard vision, use road limit”.</text>
</g></svg>