<?xml version="1.0" encoding="UTF-8" standalone="no"?>
<!-- Created with Inkscape (http://www.inkscape.org/) -->

<svg
   version="1.1"
   id="svg1"
   width="400"
   height="400.00156"
   viewBox="0 0 400 400.00156"
   sodipodi:docname="C41.svg"
   inkscape:export-filename="..\..\PNG\C\C41.png"
   inkscape:export-xdpi="300"
   inkscape:export-ydpi="300"
   inkscape:version="1.4 (86a8ad7, 2024-10-11)"
   xmlns:inkscape="http://www.inkscape.org/namespaces/inkscape"
   xmlns:sodipodi="http://sodipodi.sourceforge.net/DTD/sodipodi-0.dtd"
   xmlns="http://www.w3.org/2000/svg"
   xmlns:svg="http://www.w3.org/2000/svg">
  <defs
     id="defs1" />
  <sodipodi:namedview
     id="namedview1"
     pagecolor="#ffffff"
     bordercolor="#000000"
     borderopacity="0.25"
     inkscape:showpageshadow="2"
     inkscape:pageopacity="0.0"
     inkscape:pagecheckerboard="true"
     inkscape:deskcolor="#d1d1d1"
     inkscape:zoom="3.0925"
     inkscape:cx="200"
     inkscape:cy="200"
     inkscape:window-width="2560"
     inkscape:window-height="1417"
     inkscape:window-x="1912"
     inkscape:window-y="-8"
     inkscape:window-maximized="1"
     inkscape:current-layer="g1">
    <inkscape:page
       x="0"
       y="0"
       inkscape:label="1"
       id="page1"
       width="400"
       height="400.00156"
       margin="0"
       bleed="0" />
  </sodipodi:namedview>
  <g
     id="g1"
     inkscape:groupmode="layer"
     inkscape:label="1">
    <path
       id="path1"
       d="M 3000,1500 C 3000,671.57 2328.43,-0.0117188 1500,-0.0117188 671.57,-0.0117188 0,671.57 0,1500 c 0,828.43 671.57,1500 1500,1500 828.43,0 1500,-671.57 1500,-1500"
       style="fill:#ffffff;fill-opacity:1;fill-rule:nonzero;stroke:none"
       transform="matrix(0.13333333,0,0,-0.13333333,0,400)" />
    <path
       id="path2"
       d="M 2950,1500 C 2950,699.18 2300.82,49.9883 1500,49.9883 699.184,49.9883 49.9961,699.18 49.9961,1500 c 0,800.81 649.1879,1450 1450.0039,1450 800.82,0 1450,-649.19 1450,-1450"
       style="fill:#100f0d;fill-opacity:1;fill-rule:nonzero;stroke:none"
       transform="matrix(0.13333333,0,0,-0.13333333,0,400)" />
    <path
       id="path3"
       d="m 1500,2875.01 c 759.4,0 1375.01,-615.62 1375.01,-1375.01 C 2875.01,740.602 2259.4,124.98 1500,124.98 740.598,124.98 124.992,740.602 124.992,1500 c 0,759.39 615.606,1375.01 1375.008,1375.01"
       style="fill:#ffffff;fill-opacity:1;fill-rule:nonzero;stroke:none"
       transform="matrix(0.13333333,0,0,-0.13333333,0,400)" />
    <path
       id="path4"
       d="m 470.367,1227.78 v 799.36 c 0,48.53 39.336,87.86 87.86,87.86 h 727.953 c 48.52,0 87.86,-39.33 87.86,-87.86 V 1227.78 H 470.367"
       style="fill:#909090;fill-opacity:1;fill-rule:nonzero;stroke:none"
       transform="matrix(0.13333333,0,0,-0.13333333,0,400)" />
    <path
       id="path5"
       d="m 1375.29,1167.32 h 0.07 V 914.289 h -0.07 C 1374.32,898.02 1360.7,885 1344.19,885 h -93.48 c -17.13,0 -31.16,14.031 -31.16,31.16 v 100.79 l -207.2,-14.69 c -20.295,-28.979 -53.448,-46.24 -88.827,-46.24 -35.378,0 -68.535,17.261 -88.832,46.24 l -207.207,14.69 V 916.16 c 0,-17.129 -14.015,-31.16 -31.148,-31.16 h -93.492 c -16.516,0 -30.133,13.02 -31.094,29.289 h -0.07 v 253.031 h 0.07 c 0.961,16.28 14.578,29.29 31.094,29.29 h 93.492 c 17.133,0 31.148,-14.02 31.148,-31.15 v -100.79 l 207.207,14.69 c 20.297,28.97 53.454,46.24 88.832,46.24 35.379,0 68.532,-17.27 88.827,-46.24 l 207.2,-14.69 v 100.79 c 0,17.13 14.03,31.15 31.16,31.15 h 93.48 c 16.51,0 30.13,-13.01 31.1,-29.29"
       style="fill:#909090;fill-opacity:1;fill-rule:nonzero;stroke:none"
       transform="matrix(0.13333333,0,0,-0.13333333,0,400)" />
    <path
       id="path6"
       d="m 2500.75,1301.45 c -10.13,13.48 -18.62,28.09 -25.35,43.55 l -95.24,218.82 c -9.55,21.97 -31.23,36.18 -55.17,36.18 h -601.94 c -23.95,0 -45.62,-14.21 -55.17,-36.18 L 1572.65,1345 c -6.74,-15.46 -15.23,-30.07 -25.34,-43.55 l -14.45,-19.26 c -9.38,-12.51 -14.45,-27.71 -14.45,-43.34 v -156.51 c 0,-33.24 26.96,-60.18 60.2,-60.18 v -98.711 c 0,-19.949 16.16,-36.109 36.11,-36.109 h 72.24 c 19.94,0 36.11,16.16 36.11,36.109 v 98.711 h 601.92 v -98.711 c 0,-19.949 16.16,-36.109 36.11,-36.109 h 72.22 c 19.96,0 36.12,16.16 36.12,36.109 v 98.711 c 33.24,0 60.19,26.94 60.19,60.18 v 156.51 c 0,15.63 -5.07,30.83 -14.45,43.34 z m -867.98,33.7 82.77,190.19 c 3.82,8.79 12.5,14.46 22.07,14.46 h 572.82 c 9.57,0 18.25,-5.67 22.08,-14.46 l 82.76,-190.19 h -782.5"
       style="fill:#909090;fill-opacity:1;fill-rule:nonzero;stroke:none"
       transform="matrix(0.13333333,0,0,-0.13333333,0,400)" />
    <path
       id="path7"
       d="M 2464.29,2483.09 903.918,258.199 C 767.039,323.941 642.816,411.73 535.707,516.922 L 2096.09,2741.79 c 136.85,-65.74 261.09,-153.52 368.2,-258.7"
       style="fill:#100f0d;fill-opacity:1;fill-rule:nonzero;stroke:none"
       transform="matrix(0.13333333,0,0,-0.13333333,0,400)" />
  </g>
</svg>
