<?xml version="1.0" encoding="UTF-8" standalone="no"?>
<!-- Created with Inkscape (http://www.inkscape.org/) -->

<svg
   version="1.1"
   id="svg1"
   width="400"
   height="400"
   viewBox="0 0 400 400"
   sodipodi:docname="D3b.svg"
   inkscape:export-filename="D3b.png"
   inkscape:export-xdpi="300"
   inkscape:export-ydpi="300"
   inkscape:version="1.4 (86a8ad7, 2024-10-11)"
   xmlns:inkscape="http://www.inkscape.org/namespaces/inkscape"
   xmlns:sodipodi="http://sodipodi.sourceforge.net/DTD/sodipodi-0.dtd"
   xmlns="http://www.w3.org/2000/svg"
   xmlns:svg="http://www.w3.org/2000/svg">
  <defs
     id="defs1" />
  <sodipodi:namedview
     id="namedview1"
     pagecolor="#ffffff"
     bordercolor="#000000"
     borderopacity="0.25"
     inkscape:showpageshadow="2"
     inkscape:pageopacity="0.0"
     inkscape:pagecheckerboard="true"
     inkscape:deskcolor="#d1d1d1"
     inkscape:zoom="2.1925"
     inkscape:cx="200"
     inkscape:cy="200"
     inkscape:window-width="1920"
     inkscape:window-height="1057"
     inkscape:window-x="1912"
     inkscape:window-y="-8"
     inkscape:window-maximized="1"
     inkscape:current-layer="g1">
    <inkscape:page
       x="0"
       y="0"
       inkscape:label="1"
       id="page1"
       width="400"
       height="400"
       margin="0"
       bleed="0" />
  </sodipodi:namedview>
  <g
     id="g1"
     inkscape:groupmode="layer"
     inkscape:label="1">
    <path
       id="path1"
       d="M 3000,1500 C 3000,671.57 2328.43,0 1500,0 671.566,0 0,671.57 0,1500 c 0,828.43 671.566,1500 1500,1500 828.43,0 1500,-671.57 1500,-1500"
       style="fill:#0060aa;fill-opacity:1;fill-rule:nonzero;stroke:none"
       transform="matrix(0.13333333,0,0,-0.13333333,0,400)" />
    <path
       id="path2"
       d="M 2951.61,1500 C 2951.61,698.301 2301.7,48.3789 1500,48.3789 698.289,48.3789 48.3828,698.301 48.3828,1500 c 0,801.71 649.9142,1451.61 1451.6172,1451.61 801.7,0 1451.61,-649.9 1451.61,-1451.61"
       style="fill:#ffffff;fill-opacity:1;fill-rule:nonzero;stroke:none"
       transform="matrix(0.13333333,0,0,-0.13333333,0,400)" />
    <path
       id="path3"
       d="M 2879.03,1500 C 2879.03,738.391 2261.61,120.969 1500,120.969 738.379,120.969 120.969,738.391 120.969,1500 c 0,761.62 617.41,1379.04 1379.031,1379.04 761.61,0 1379.03,-617.42 1379.03,-1379.04"
       style="fill:#0060aa;fill-opacity:1;fill-rule:nonzero;stroke:none"
       transform="matrix(0.13333333,0,0,-0.13333333,0,400)" />
    <path
       id="path4"
       d="M 1778.43,1987.11 1923.59,438.73 h -483.88 l 85.88,915.99 -448.78,42.07 v -314.52 l -629.029,411.29 629.029,411.29 v -314.52 l 475.04,44.54 33.02,352.24 h -314.51 l 411.29,629.03 411.29,-629.03 h -314.51"
       style="fill:#ffffff;fill-opacity:1;fill-rule:nonzero;stroke:none"
       transform="matrix(0.13333333,0,0,-0.13333333,0,400)" />
  </g>
</svg>
