none
1
   8.226564E+00   4.896707E+01
   8.290483E+00   4.900430E+01
   8.308333E+00   4.905907E+01
   8.353387E+00   4.910233E+01
   8.362435E+00   4.917175E+01
   8.383821E+00   4.921301E+01
   8.381765E+00   4.924121E+01
   8.409009E+00   4.925912E+01
   8.442378E+00   4.928162E+01
   8.466292E+00   4.929431E+01
   8.479640E+00   4.929504E+01
   8.469629E+00   4.930701E+01
   8.444046E+00   4.931426E+01
   8.444046E+00   4.933166E+01
   8.462399E+00   4.934434E+01
   8.489650E+00   4.936716E+01
   8.454613E+00   4.937622E+01
   8.462399E+00   4.939287E+01
   8.482977E+00   4.940264E+01
   8.500217E+00   4.943430E+01
   8.464624E+00   4.943900E+01
   8.436817E+00   4.944696E+01
   8.435148E+00   4.946069E+01
   8.454613E+00   4.946937E+01
   8.440153E+00   4.948780E+01
   8.405672E+00   4.955351E+01
   8.417351E+00   4.958993E+01
   8.450720E+00   4.959642E+01
   8.473522E+00   4.959678E+01
   8.530805E+00   4.955639E+01
   8.546377E+00   4.953294E+01
   8.583083E+00   4.952644E+01
   8.608110E+00   4.955098E+01
   8.585864E+00   4.959101E+01
   8.580302E+00   4.961156E+01
   8.618120E+00   4.962309E+01
   8.695425E+00   4.963137E+01
   8.708772E+00   4.958993E+01
   8.699318E+00   4.957190E+01
   8.732757E+00   4.952788E+01
   8.776359E+00   4.952409E+01
   8.825798E+00   4.952989E+01
   8.823738E+00   4.951183E+01
   8.902359E+00   4.950559E+01
   8.930511E+00   4.947906E+01
   8.948364E+00   4.950738E+01
   8.986129E+00   4.951206E+01
   9.031105E+00   4.950648E+01
   9.069934E+00   4.953864E+01
   9.068785E+00   4.956425E+01
   9.069900E+00   4.957644E+01
   9.103889E+00   4.958223E+01
   9.236755E+00   4.958512E+01
   9.266624E+00   4.963651E+01
   9.300270E+00   4.965696E+01
   9.397087E+00   4.966274E+01
   9.380607E+00   4.969007E+01
   9.291343E+00   4.973380E+01
   9.308853E+00   4.977173E+01
   9.426613E+00   4.979456E+01
   9.578704E+00   4.978703E+01
   9.654235E+00   4.979390E+01
   9.657669E+00   4.971160E+01
   9.713630E+00   4.973047E+01
   9.802208E+00   4.973424E+01
   9.840316E+00   4.969806E+01
   9.876709E+00   4.960960E+01
   9.918937E+00   4.958445E+01
   9.953613E+00   4.948642E+01
   1.002028E+01   4.949676E+01
   1.003189E+01   4.952900E+01
   1.006039E+01   4.954905E+01
   1.009300E+01   4.954504E+01
   1.012699E+01   4.950871E+01
   1.012562E+01   4.946344E+01
   1.017094E+01   4.938885E+01
   1.012012E+01   4.937433E+01
   1.012776E+01   4.935269E+01
   1.011755E+01   4.933200E+01
   1.014244E+01   4.932814E+01
   1.015841E+01   4.928124E+01
   1.012922E+01   4.923340E+01
   1.015944E+01   4.919405E+01
   1.025419E+01   4.914881E+01
   1.026020E+01   4.913006E+01
   1.021917E+01   4.910152E+01
   1.025162E+01   4.909388E+01
   1.027634E+01   4.905092E+01
   1.035015E+01   4.903112E+01
   1.041641E+01   4.898089E+01
   1.045383E+01   4.894190E+01
   1.046173E+01   4.890783E+01
   1.045521E+01   4.880958E+01
   1.043426E+01   4.876479E+01
   1.051495E+01   4.869663E+01
   1.046516E+01   4.866330E+01
   1.035152E+01   4.864720E+01
   1.033264E+01   4.867827E+01
   1.026535E+01   4.867713E+01
   1.032990E+01   4.860794E+01
   1.031822E+01   4.852138E+01
   1.017815E+01   4.845744E+01
   1.012699E+01   4.845220E+01
   1.010536E+01   4.846427E+01
   1.004219E+01   4.844537E+01
   1.004597E+01   4.842761E+01
   1.001327E+01   4.840163E+01
   9.989405E+00   4.839069E+01
   9.977131E+00   4.837860E+01
   1.000185E+01   4.836435E+01
   1.006897E+01   4.828091E+01
   1.007154E+01   4.824125E+01
   1.008820E+01   4.820488E+01
   1.011532E+01   4.812737E+01
   1.014261E+01   4.811270E+01
   1.014570E+01   4.803654E+01
   1.012064E+01   4.797407E+01
   1.008871E+01   4.796280E+01
   1.011463E+01   4.793647E+01
   1.010880E+01   4.786212E+01
   1.014278E+01   4.780785E+01
   1.007704E+01   4.778640E+01
   1.012064E+01   4.776137E+01
   1.014296E+01   4.770271E+01
   1.013231E+01   4.767001E+01
   1.009283E+01   4.765787E+01
   1.007635E+01   4.763602E+01
   1.006863E+01   4.764041E+01
   1.006056E+01   4.767209E+01
   9.993954E+00   4.767440E+01
   9.971638E+00   4.764943E+01
   9.932842E+00   4.765105E+01
   9.890270E+00   4.766157E+01
   9.855938E+00   4.767394E+01
   9.836712E+00   4.766273E+01
   9.750881E+00   4.760200E+01
   9.715862E+00   4.760142E+01
   9.648056E+00   4.759887E+01
   9.646168E+00   4.758834E+01
   9.614582E+00   4.757884E+01
   9.603166E+00   4.758191E+01
   9.568846E+00   4.753637E+01
   9.566016E+00   4.753274E+01
   9.511991E+00   4.753246E+01
   9.257166E+00   4.765752E+01
   9.202392E+00   4.765489E+01
   9.186843E+00   4.765697E+01
   9.175913E+00   4.765379E+01
   9.170285E+00   4.765474E+01
   9.155548E+00   4.766600E+01
   9.149401E+00   4.766713E+01
   9.139468E+00   4.766367E+01
   9.131947E+00   4.766578E+01
   9.083404E+00   4.767636E+01
   9.031386E+00   4.768340E+01
   8.980785E+00   4.767050E+01
   8.941273E+00   4.765569E+01
   8.896961E+00   4.764593E+01
   8.882626E+00   4.765327E+01
   8.874739E+00   4.765450E+01
   8.872349E+00   4.766971E+01
   8.849493E+00   4.768089E+01
   8.849927E+00   4.770233E+01
   8.818155E+00   4.771242E+01
   8.801323E+00   4.772681E+01
   8.785749E+00   4.772516E+01
   8.775490E+00   4.771473E+01
   8.802318E+00   4.770121E+01
   8.812951E+00   4.769590E+01
   8.796867E+00   4.767232E+01
   8.776356E+00   4.767892E+01
   8.753301E+00   4.768997E+01
   8.725752E+00   4.769170E+01
   8.711398E+00   4.768777E+01
   8.689367E+00   4.769318E+01
   8.671149E+00   4.768290E+01
   8.661989E+00   4.768547E+01
   8.656862E+00   4.769110E+01
   8.669993E+00   4.770030E+01
   8.662608E+00   4.770457E+01
   8.661606E+00   4.771454E+01
   8.722521E+00   4.771653E+01
   8.707874E+00   4.772523E+01
   8.713053E+00   4.774125E+01
   8.730326E+00   4.775527E+01
   8.720028E+00   4.776273E+01
   8.688705E+00   4.775314E+01
   8.682725E+00   4.777008E+01
   8.679226E+00   4.778419E+01
   8.657985E+00   4.778994E+01
   8.650537E+00   4.779565E+01
   8.654287E+00   4.777361E+01
   8.646752E+00   4.776462E+01
   8.631322E+00   4.775749E+01
   8.619180E+00   4.776216E+01
   8.613514E+00   4.778451E+01
   8.616484E+00   4.779603E+01
   8.609139E+00   4.780029E+01
   8.593503E+00   4.779744E+01
   8.567997E+00   4.779977E+01
   8.563882E+00   4.779288E+01
   8.576105E+00   4.779015E+01
   8.578471E+00   4.778102E+01
   8.563150E+00   4.777654E+01
   8.529788E+00   4.777687E+01
   8.519373E+00   4.776965E+01
   8.489374E+00   4.776880E+01
   8.457423E+00   4.774126E+01
   8.462303E+00   4.772909E+01
   8.449293E+00   4.771663E+01
   8.422688E+00   4.770807E+01
   8.414711E+00   4.769991E+01
   8.427303E+00   4.768562E+01
   8.415918E+00   4.767430E+01
   8.440344E+00   4.766490E+01
   8.469661E+00   4.766016E+01
   8.474184E+00   4.765258E+01
   8.496737E+00   4.765153E+01
   8.517506E+00   4.765360E+01
   8.537995E+00   4.767185E+01
   8.556695E+00   4.767164E+01
   8.570331E+00   4.767023E+01
   8.580894E+00   4.767542E+01
   8.609074E+00   4.767324E+01
   8.631713E+00   4.765233E+01
   8.624695E+00   4.763388E+01
   8.602636E+00   4.763262E+01
   8.612806E+00   4.761327E+01
   8.584337E+00   4.759208E+01
   8.555859E+00   4.759672E+01
   8.562340E+00   4.761117E+01
   8.528154E+00   4.762756E+01
   8.507736E+00   4.761413E+01
   8.484145E+00   4.761080E+01
   8.461110E+00   4.759874E+01
   8.468036E+00   4.758595E+01
   8.489851E+00   4.759139E+01
   8.497283E+00   4.758065E+01
   8.486938E+00   4.757595E+01
   8.464451E+00   4.757091E+01
   8.431063E+00   4.756494E+01
   8.397760E+00   4.757490E+01
   8.385658E+00   4.756344E+01
   8.357334E+00   4.756882E+01
   8.326692E+00   4.756992E+01
   8.319139E+00   4.757328E+01
   8.309784E+00   4.758203E+01
   8.298712E+00   4.758654E+01
   8.293991E+00   4.759088E+01
   8.293133E+00   4.759551E+01
   8.294935E+00   4.760576E+01
   8.262062E+00   4.760802E+01
   8.257255E+00   4.761351E+01
   8.238287E+00   4.761068E+01
   8.232279E+00   4.760529E+01
   8.225756E+00   4.760333E+01
   8.221292E+00   4.760634E+01
   8.217945E+00   4.761606E+01
   8.210392E+00   4.761947E+01
   8.200092E+00   4.761803E+01
   8.190050E+00   4.760564E+01
   8.167906E+00   4.759331E+01
   8.137178E+00   4.758261E+01
   8.107052E+00   4.757774E+01
   8.103018E+00   4.756286E+01
   8.094091E+00   4.755759E+01
   8.085852E+00   4.755573E+01
   8.078213E+00   4.755718E+01
   8.068085E+00   4.756309E+01
   8.060017E+00   4.756251E+01
   8.049760E+00   4.755507E+01
   8.021607E+00   4.754901E+01
   8.012381E+00   4.755035E+01
   7.995686E+00   4.755507E+01
   7.971740E+00   4.755385E+01
   7.960839E+00   4.755692E+01
   7.954016E+00   4.755359E+01
   7.951999E+00   4.754615E+01
   7.947578E+00   4.754270E+01
   7.940712E+00   4.754290E+01
   7.931356E+00   4.754568E+01
   7.916465E+00   4.754638E+01
   7.909040E+00   4.755084E+01
   7.905092E+00   4.755883E+01
   7.905564E+00   4.756245E+01
   7.909298E+00   4.756839E+01
   7.890587E+00   4.758521E+01
   7.865181E+00   4.758579E+01
   7.846298E+00   4.757959E+01
   7.819004E+00   4.758272E+01
   7.815227E+00   4.756790E+01
   7.802095E+00   4.756222E+01
   7.797804E+00   4.755608E+01
   7.789478E+00   4.755284E+01
   7.760467E+00   4.754658E+01
   7.750683E+00   4.754247E+01
   7.720127E+00   4.753980E+01
   7.712660E+00   4.753650E+01
   7.696524E+00   4.753076E+01
   7.682018E+00   4.753088E+01
   7.668114E+00   4.753325E+01
   7.647343E+00   4.754710E+01
   7.630434E+00   4.756141E+01
   7.613525E+00   4.755712E+01
   7.586489E+00   4.759013E+01
   7.589579E+00   4.760124E+01
   7.572927E+00   4.761288E+01
   7.563314E+00   4.763185E+01
   7.524519E+00   4.765209E+01
   7.514477E+00   4.767238E+01
   7.506494E+00   4.770237E+01
   7.536053E+00   4.772271E+01
   7.541032E+00   4.773606E+01
   7.523918E+00   4.777798E+01
   7.557124E+00   4.784839E+01
   7.549463E+00   4.787338E+01
   7.553581E+00   4.788424E+01
   7.578666E+00   4.789745E+01
   7.574615E+00   4.793028E+01
   7.613179E+00   4.796804E+01
   7.611904E+00   4.798710E+01
   7.562205E+00   4.803320E+01
   7.566702E+00   4.805764E+01
   7.561067E+00   4.808531E+01
   7.574915E+00   4.812580E+01
   7.594912E+00   4.813676E+01
   7.595338E+00   4.815977E+01
   7.633047E+00   4.819717E+01
   7.648080E+00   4.821769E+01
   7.662748E+00   4.822473E+01
   7.684659E+00   4.830305E+01
   7.731776E+00   4.832652E+01
   7.734696E+00   4.834826E+01
   7.724517E+00   4.837637E+01
   7.729866E+00   4.840569E+01
   7.761246E+00   4.846079E+01
   7.763463E+00   4.849158E+01
   7.794971E+00   4.850819E+01
   7.802009E+00   4.855696E+01
   7.797460E+00   4.858160E+01
   7.799582E+00   4.858780E+01
   7.834088E+00   4.864439E+01
   7.883549E+00   4.866523E+01
   7.958799E+00   4.872833E+01
   7.958545E+00   4.875525E+01
   7.971347E+00   4.876372E+01
   7.989349E+00   4.876497E+01
   8.007903E+00   4.876299E+01
   8.017443E+00   4.877024E+01
   8.020692E+00   4.878879E+01
   8.043024E+00   4.879560E+01
   8.064676E+00   4.879379E+01
   8.100241E+00   4.882308E+01
   8.112246E+00   4.886152E+01
   8.130868E+00   4.889690E+01
   8.165850E+00   4.892890E+01
   8.193647E+00   4.896021E+01
   8.226564E+00   4.896707E+01
END
END
