none
1
   1.187346E+01   5.444185E+01
   1.193115E+01   5.442373E+01
   1.226383E+01   5.460534E+01
   1.292131E+01   5.488071E+01
   1.324175E+01   5.498370E+01
   1.407910E+01   5.476026E+01
   1.429761E+01   5.418108E+01
   1.423244E+01   5.392739E+01
   1.421562E+01   5.391587E+01
   1.421692E+01   5.391050E+01
   1.421655E+01   5.391019E+01
   1.421939E+01   5.390032E+01
   1.422724E+01   5.386794E+01
   1.428713E+01   5.376589E+01
   1.427484E+01   5.372688E+01
   1.427935E+01   5.369862E+01
   1.429000E+01   5.368061E+01
   1.428143E+01   5.366715E+01
   1.429000E+01   5.366118E+01
   1.429149E+01   5.363644E+01
   1.432318E+01   5.362096E+01
   1.432280E+01   5.356289E+01
   1.431647E+01   5.354828E+01
   1.432616E+01   5.353476E+01
   1.433958E+01   5.350662E+01
   1.435896E+01   5.349598E+01
   1.436958E+01   5.346226E+01
   1.438421E+01   5.345521E+01
   1.438502E+01   5.345387E+01
   1.438513E+01   5.345359E+01
   1.438263E+01   5.342718E+01
   1.442177E+01   5.334259E+01
   1.442292E+01   5.332761E+01
   1.432928E+01   5.330138E+01
   1.427543E+01   5.325696E+01
   1.420810E+01   5.324863E+01
   1.408722E+01   5.325782E+01
   1.411125E+01   5.329682E+01
   1.419022E+01   5.335096E+01
   1.423073E+01   5.339561E+01
   1.422043E+01   5.341854E+01
   1.404652E+01   5.340614E+01
   1.391521E+01   5.341813E+01
   1.389152E+01   5.343020E+01
   1.390183E+01   5.345146E+01
   1.386921E+01   5.347231E+01
   1.383213E+01   5.348805E+01
   1.378510E+01   5.347068E+01
   1.373291E+01   5.347967E+01
   1.369995E+01   5.346700E+01
   1.362682E+01   5.340605E+01
   1.357429E+01   5.339930E+01
   1.352898E+01   5.331816E+01
   1.349190E+01   5.328615E+01
   1.345001E+01   5.328390E+01
   1.339645E+01   5.323399E+01
   1.338169E+01   5.323810E+01
   1.335766E+01   5.327076E+01
   1.330135E+01   5.327486E+01
   1.326771E+01   5.325762E+01
   1.323784E+01   5.321282E+01
   1.314137E+01   5.322782E+01
   1.308712E+01   5.319781E+01
   1.298241E+01   5.315686E+01
   1.288216E+01   5.317518E+01
   1.277607E+01   5.318176E+01
   1.272629E+01   5.319431E+01
   1.274551E+01   5.321405E+01
   1.255806E+01   5.324714E+01
   1.244339E+01   5.324632E+01
   1.235687E+01   5.329744E+01
   1.225422E+01   5.332083E+01
   1.206196E+01   5.334584E+01
   1.202591E+01   5.329744E+01
   1.195416E+01   5.327137E+01
   1.186283E+01   5.324591E+01
   1.183124E+01   5.322186E+01
   1.172550E+01   5.321385E+01
   1.168190E+01   5.323707E+01
   1.159607E+01   5.320891E+01
   1.155418E+01   5.312597E+01
   1.150337E+01   5.311670E+01
   1.143574E+01   5.313132E+01
   1.139488E+01   5.310619E+01
   1.129223E+01   5.311381E+01
   1.126493E+01   5.311989E+01
   1.122545E+01   5.313925E+01
   1.118597E+01   5.313174E+01
   1.117584E+01   5.313689E+01
   1.116692E+01   5.315748E+01
   1.118751E+01   5.318012E+01
   1.113533E+01   5.318855E+01
   1.107319E+01   5.321940E+01
   1.100332E+01   5.328112E+01
   1.098770E+01   5.331970E+01
   1.092573E+01   5.333702E+01
   1.083801E+01   5.330134E+01
   1.078806E+01   5.331508E+01
   1.075424E+01   5.332862E+01
   1.073639E+01   5.334082E+01
   1.072317E+01   5.335690E+01
   1.069811E+01   5.336879E+01
   1.067940E+01   5.336582E+01
   1.062790E+01   5.336848E+01
   1.058807E+01   5.336121E+01
   1.059322E+01   5.337667E+01
   1.060970E+01   5.339152E+01
   1.062258E+01   5.345443E+01
   1.064987E+01   5.346475E+01
   1.074154E+01   5.348968E+01
   1.080540E+01   5.352225E+01
   1.082050E+01   5.358099E+01
   1.090685E+01   5.358048E+01
   1.092350E+01   5.362988E+01
   1.094204E+01   5.364881E+01
   1.093311E+01   5.367668E+01
   1.089586E+01   5.370097E+01
   1.084986E+01   5.369813E+01
   1.080763E+01   5.371967E+01
   1.077862E+01   5.374455E+01
   1.075407E+01   5.374699E+01
   1.075167E+01   5.375957E+01
   1.076385E+01   5.378159E+01
   1.076437E+01   5.380035E+01
   1.074514E+01   5.383278E+01
   1.074549E+01   5.385182E+01
   1.077072E+01   5.387500E+01
   1.080007E+01   5.387895E+01
   1.080540E+01   5.388552E+01
   1.081741E+01   5.389402E+01
   1.083870E+01   5.390110E+01
   1.086479E+01   5.391425E+01
   1.087818E+01   5.392688E+01
   1.089947E+01   5.395629E+01
   1.110649E+01   5.413026E+01
   1.162281E+01   5.433687E+01
   1.187346E+01   5.444185E+01
END
END
