none
1
   7.064743E+00   5.237682E+01
   7.052713E+00   5.239603E+01
   7.032324E+00   5.240071E+01
   7.019499E+00   5.241993E+01
   7.006563E+00   5.242734E+01
   6.988511E+00   5.246477E+01
   6.982816E+00   5.246490E+01
   6.969406E+00   5.244535E+01
   6.949588E+00   5.243143E+01
   6.864788E+00   5.244756E+01
   6.846034E+00   5.244746E+01
   6.847286E+00   5.245587E+01
   6.765292E+00   5.245666E+01
   6.690941E+00   5.248386E+01
   6.699093E+00   5.252103E+01
   6.675313E+00   5.255690E+01
   6.712067E+00   5.255210E+01
   6.723401E+00   5.256677E+01
   6.757278E+00   5.256370E+01
   6.713696E+00   5.258763E+01
   6.720514E+00   5.261522E+01
   6.703438E+00   5.262718E+01
   6.739707E+00   5.264743E+01
   6.766851E+00   5.265253E+01
   6.786871E+00   5.265596E+01
   6.787595E+00   5.265600E+01
   6.820842E+00   5.265155E+01
   6.833855E+00   5.265604E+01
   6.849533E+00   5.265303E+01
   6.868680E+00   5.265622E+01
   6.875758E+00   5.265624E+01
   6.904544E+00   5.265442E+01
   6.917857E+00   5.265055E+01
   6.917868E+00   5.265053E+01
   6.922203E+00   5.264283E+01
   6.947847E+00   5.264235E+01
   6.974326E+00   5.265073E+01
   7.036791E+00   5.263800E+01
   7.046586E+00   5.264661E+01
   7.057420E+00   5.280657E+01
   7.076423E+00   5.285297E+01
   7.171986E+00   5.294524E+01
   7.202583E+00   5.300768E+01
   7.191670E+00   5.305803E+01
   7.190724E+00   5.308496E+01
   7.193790E+00   5.311183E+01
   7.175731E+00   5.312091E+01
   7.172862E+00   5.313896E+01
   7.181116E+00   5.315551E+01
   7.194500E+00   5.317014E+01
   7.203255E+00   5.317816E+01
   7.221107E+00   5.318063E+01
   7.205658E+00   5.318886E+01
   7.210742E+00   5.319644E+01
   7.211749E+00   5.321303E+01
   7.209144E+00   5.322803E+01
   7.190041E+00   5.331078E+01
   7.189693E+00   5.331365E+01
   7.064724E+00   5.330277E+01
   7.009299E+00   5.331220E+01
   6.987175E+00   5.331661E+01
   6.922073E+00   5.334000E+01
   6.904435E+00   5.334891E+01
   6.895463E+00   5.335990E+01
   6.891784E+00   5.337144E+01
   6.882248E+00   5.340615E+01
   6.880016E+00   5.342027E+01
   6.885338E+00   5.344063E+01
   6.808433E+00   5.346332E+01
   6.678314E+00   5.349407E+01
   6.618232E+00   5.353663E+01
   6.539611E+00   5.357559E+01
   6.378935E+00   5.359495E+01
   6.295338E+00   5.375893E+01
   6.391712E+00   5.379642E+01
   6.638486E+00   5.389139E+01
   7.492673E+00   5.423955E+01
   7.715146E+00   5.404649E+01
   8.508908E+00   5.407551E+01
   8.782882E+00   5.397063E+01
   8.995055E+00   5.387925E+01
   9.047413E+00   5.388542E+01
   9.196104E+00   5.388370E+01
   9.292099E+00   5.387280E+01
   9.349022E+00   5.383896E+01
   9.427643E+00   5.375226E+01
   9.446354E+00   5.373490E+01
   9.493136E+00   5.371990E+01
   9.522250E+00   5.369615E+01
   9.560805E+00   5.362061E+01
   9.641062E+00   5.358512E+01
   9.698108E+00   5.356410E+01
   9.776716E+00   5.355601E+01
   9.774656E+00   5.354255E+01
   9.771480E+00   5.352995E+01
   9.779291E+00   5.352526E+01
   9.782638E+00   5.351832E+01
   9.785728E+00   5.350030E+01
   9.784269E+00   5.349417E+01
   9.792166E+00   5.349545E+01
   9.804697E+00   5.349412E+01
   9.802465E+00   5.347160E+01
   9.858770E+00   5.343955E+01
   9.867611E+00   5.344543E+01
   9.875164E+00   5.344502E+01
   9.892502E+00   5.345688E+01
   9.903145E+00   5.346025E+01
   9.922714E+00   5.344605E+01
   9.929440E+00   5.343399E+01
   9.944000E+00   5.343132E+01
   9.990864E+00   5.342171E+01
   9.993954E+00   5.342641E+01
   1.000889E+01   5.343071E+01
   1.002365E+01   5.343490E+01
   1.001198E+01   5.344288E+01
   1.004940E+01   5.346588E+01
   1.008013E+01   5.345607E+01
   1.009609E+01   5.344676E+01
   1.010828E+01   5.342928E+01
   1.011858E+01   5.342580E+01
   1.013901E+01   5.342345E+01
   1.014690E+01   5.341823E+01
   1.015772E+01   5.340523E+01
   1.017403E+01   5.339858E+01
   1.019651E+01   5.340073E+01
   1.023016E+01   5.339612E+01
   1.024063E+01   5.340002E+01
   1.025351E+01   5.341761E+01
   1.028183E+01   5.342539E+01
   1.030466E+01   5.343531E+01
   1.031719E+01   5.343306E+01
   1.033230E+01   5.342621E+01
   1.036972E+01   5.342917E+01
   1.039066E+01   5.342017E+01
   1.040028E+01   5.341260E+01
   1.044113E+01   5.339612E+01
   1.047152E+01   5.338783E+01
   1.049933E+01   5.337596E+01
   1.052250E+01   5.337288E+01
   1.055855E+01   5.336991E+01
   1.056988E+01   5.336366E+01
   1.058344E+01   5.336192E+01
   1.059442E+01   5.336551E+01
   1.061176E+01   5.337206E+01
   1.063099E+01   5.337350E+01
   1.068180E+01   5.336981E+01
   1.069845E+01   5.337432E+01
   1.073553E+01   5.335475E+01
   1.074051E+01   5.334399E+01
   1.076660E+01   5.334082E+01
   1.076403E+01   5.333303E+01
   1.083784E+01   5.331242E+01
   1.087870E+01   5.333610E+01
   1.091869E+01   5.335055E+01
   1.099079E+01   5.333477E+01
   1.100864E+01   5.330965E+01
   1.108400E+01   5.322166E+01
   1.119799E+01   5.318516E+01
   1.120348E+01   5.317579E+01
   1.118511E+01   5.315933E+01
   1.117756E+01   5.315552E+01
   1.118854E+01   5.313699E+01
   1.120314E+01   5.314368E+01
   1.121584E+01   5.314759E+01
   1.124399E+01   5.314080E+01
   1.127232E+01   5.312164E+01
   1.127369E+01   5.310021E+01
   1.129583E+01   5.308485E+01
   1.131420E+01   5.307784E+01
   1.133223E+01   5.306113E+01
   1.134544E+01   5.305556E+01
   1.137720E+01   5.306598E+01
   1.140879E+01   5.307701E+01
   1.144707E+01   5.308093E+01
   1.146629E+01   5.307794E+01
   1.150852E+01   5.305153E+01
   1.154938E+01   5.305504E+01
   1.158740E+01   5.303662E+01
   1.160731E+01   5.303765E+01
   1.155762E+01   5.299536E+01
   1.150715E+01   5.293923E+01
   1.141308E+01   5.290393E+01
   1.135849E+01   5.289047E+01
   1.129566E+01   5.287224E+01
   1.124004E+01   5.287700E+01
   1.116760E+01   5.290103E+01
   1.110958E+01   5.289358E+01
   1.100246E+01   5.290807E+01
   1.099045E+01   5.288343E+01
   1.094547E+01   5.285213E+01
   1.089088E+01   5.284384E+01
   1.077484E+01   5.283845E+01
   1.075973E+01   5.278345E+01
   1.079441E+01   5.275209E+01
   1.083424E+01   5.271716E+01
   1.093071E+01   5.261264E+01
   1.094170E+01   5.262202E+01
   1.096744E+01   5.262910E+01
   1.098221E+01   5.262452E+01
   1.097912E+01   5.260305E+01
   1.094547E+01   5.257802E+01
   1.094822E+01   5.255193E+01
   1.101654E+01   5.249553E+01
   1.093758E+01   5.247295E+01
   1.095440E+01   5.244890E+01
   1.098530E+01   5.242545E+01
   1.102993E+01   5.239551E+01
   1.108040E+01   5.237749E+01
   1.107250E+01   5.235442E+01
   1.105911E+01   5.234772E+01
   1.103714E+01   5.234226E+01
   1.100521E+01   5.234037E+01
   1.103851E+01   5.231100E+01
   1.104160E+01   5.230113E+01
   1.109207E+01   5.222780E+01
   1.106358E+01   5.215161E+01
   1.104778E+01   5.213286E+01
   1.101448E+01   5.212168E+01
   1.097603E+01   5.208816E+01
   1.097706E+01   5.207444E+01
   1.096916E+01   5.205355E+01
   1.087784E+01   5.205418E+01
   1.084213E+01   5.204573E+01
   1.069313E+01   5.204510E+01
   1.065742E+01   5.203982E+01
   1.065811E+01   5.202314E+01
   1.062996E+01   5.200729E+01
   1.060163E+01   5.200528E+01
   1.057159E+01   5.200475E+01
   1.058885E+01   5.198631E+01
   1.059013E+01   5.197875E+01
   1.060576E+01   5.197917E+01
   1.064386E+01   5.196341E+01
   1.065485E+01   5.195865E+01
   1.064987E+01   5.195336E+01
   1.061880E+01   5.193993E+01
   1.062035E+01   5.192257E+01
   1.064026E+01   5.191611E+01
   1.065262E+01   5.190647E+01
   1.065142E+01   5.188709E+01
   1.063511E+01   5.187183E+01
   1.059185E+01   5.184553E+01
   1.059236E+01   5.183334E+01
   1.057863E+01   5.181042E+01
   1.058670E+01   5.179991E+01
   1.058996E+01   5.178876E+01
   1.058275E+01   5.178133E+01
   1.059202E+01   5.176901E+01
   1.063065E+01   5.175934E+01
   1.064936E+01   5.172405E+01
   1.066343E+01   5.171778E+01
   1.067184E+01   5.171076E+01
   1.067562E+01   5.169778E+01
   1.066841E+01   5.168128E+01
   1.070669E+01   5.163922E+01
   1.065176E+01   5.160661E+01
   1.063665E+01   5.160267E+01
   1.064095E+01   5.158592E+01
   1.066824E+01   5.158048E+01
   1.066824E+01   5.157451E+01
   1.065966E+01   5.155562E+01
   1.064695E+01   5.155690E+01
   1.063545E+01   5.156064E+01
   1.060284E+01   5.157750E+01
   1.058910E+01   5.156608E+01
   1.056147E+01   5.155530E+01
   1.051889E+01   5.155231E+01
   1.050636E+01   5.155584E+01
   1.047409E+01   5.157760E+01
   1.045074E+01   5.158208E+01
   1.042894E+01   5.159072E+01
   1.040869E+01   5.158560E+01
   1.037950E+01   5.158422E+01
   1.038294E+01   5.156171E+01
   1.037521E+01   5.155733E+01
   1.036920E+01   5.154153E+01
   1.034311E+01   5.151814E+01
   1.030397E+01   5.150628E+01
   1.030397E+01   5.149357E+01
   1.023462E+01   5.146952E+01
   1.019051E+01   5.146641E+01
   1.017626E+01   5.144588E+01
   1.015600E+01   5.142929E+01
   1.014158E+01   5.142790E+01
   1.008820E+01   5.143079E+01
   1.007961E+01   5.142051E+01
   1.007275E+01   5.141698E+01
   1.001249E+01   5.141837E+01
   1.000631E+01   5.140552E+01
   9.946747E+00   5.137875E+01
   9.927177E+00   5.137360E+01
   9.924259E+00   5.137767E+01
   9.921856E+00   5.139664E+01
   9.906921E+00   5.140724E+01
   9.902286E+00   5.141580E+01
   9.881515E+00   5.140210E+01
   9.856968E+00   5.140906E+01
   9.853535E+00   5.140167E+01
   9.861946E+00   5.139578E+01
   9.871044E+00   5.137189E+01
   9.848213E+00   5.137028E+01
   9.837742E+00   5.138421E+01
   9.830875E+00   5.140285E+01
   9.809418E+00   5.140917E+01
   9.801178E+00   5.140649E+01
   9.807186E+00   5.138785E+01
   9.800663E+00   5.138475E+01
   9.716549E+00   5.136224E+01
   9.774055E+00   5.133866E+01
   9.777145E+00   5.132460E+01
   9.770279E+00   5.130615E+01
   9.733028E+00   5.129348E+01
   9.688911E+00   5.130636E+01
   9.677839E+00   5.130980E+01
   9.675608E+00   5.131420E+01
   9.669771E+00   5.131650E+01
   9.662990E+00   5.131114E+01
   9.627285E+00   5.131119E+01
   9.603338E+00   5.132444E+01
   9.566517E+00   5.133962E+01
   9.558363E+00   5.134654E+01
   9.547377E+00   5.135903E+01
   9.550381E+00   5.136294E+01
   9.557762E+00   5.136171E+01
   9.564629E+00   5.136224E+01
   9.569435E+00   5.136396E+01
   9.570465E+00   5.136658E+01
   9.574671E+00   5.137076E+01
   9.558706E+00   5.137435E+01
   9.556217E+00   5.137757E+01
   9.556131E+00   5.138132E+01
   9.562054E+00   5.138871E+01
   9.576988E+00   5.140287E+01
   9.590034E+00   5.140424E+01
   9.639473E+00   5.141655E+01
   9.623165E+00   5.144309E+01
   9.628315E+00   5.146043E+01
   9.641533E+00   5.146663E+01
   9.638958E+00   5.147219E+01
   9.624367E+00   5.147507E+01
   9.613209E+00   5.148363E+01
   9.605141E+00   5.149442E+01
   9.581451E+00   5.151729E+01
   9.602995E+00   5.156336E+01
   9.626770E+00   5.158358E+01
   9.636555E+00   5.158614E+01
   9.648399E+00   5.158219E+01
   9.683075E+00   5.156853E+01
   9.687195E+00   5.157824E+01
   9.670372E+00   5.158646E+01
   9.637241E+00   5.160736E+01
   9.632606E+00   5.162420E+01
   9.617500E+00   5.163208E+01
   9.605655E+00   5.162676E+01
   9.570980E+00   5.162324E+01
   9.557075E+00   5.162846E+01
   9.536133E+00   5.163070E+01
   9.524116E+00   5.162548E+01
   9.503002E+00   5.162569E+01
   9.487896E+00   5.163379E+01
   9.492531E+00   5.165595E+01
   9.467296E+00   5.165254E+01
   9.450302E+00   5.164529E+01
   9.440346E+00   5.164913E+01
   9.420261E+00   5.164572E+01
   9.382367E+00   5.164548E+01
   9.378762E+00   5.164841E+01
   9.372797E+00   5.164971E+01
   9.376488E+00   5.165818E+01
   9.378204E+00   5.166707E+01
   9.384556E+00   5.167101E+01
   9.385328E+00   5.169086E+01
   9.397945E+00   5.169804E+01
   9.399490E+00   5.170517E+01
   9.390907E+00   5.171150E+01
   9.385843E+00   5.171825E+01
   9.373226E+00   5.174319E+01
   9.383182E+00   5.175913E+01
   9.419145E+00   5.177889E+01
   9.422235E+00   5.177846E+01
   9.430818E+00   5.178505E+01
   9.446354E+00   5.179407E+01
   9.434423E+00   5.179678E+01
   9.438629E+00   5.180336E+01
   9.429531E+00   5.180432E+01
   9.424252E+00   5.181374E+01
   9.437942E+00   5.183069E+01
   9.429960E+00   5.184262E+01
   9.450817E+00   5.185137E+01
   9.458885E+00   5.185677E+01
   9.405155E+00   5.185455E+01
   9.360180E+00   5.186261E+01
   9.334431E+00   5.185264E+01
   9.319496E+00   5.185444E+01
   9.319496E+00   5.185677E+01
   9.333744E+00   5.185635E+01
   9.337177E+00   5.187988E+01
   9.339065E+00   5.190626E+01
   9.330311E+00   5.191494E+01
   9.287739E+00   5.191865E+01
   9.277267E+00   5.192532E+01
   9.260788E+00   5.194564E+01
   9.271259E+00   5.196944E+01
   9.220791E+00   5.197156E+01
   9.213238E+00   5.195961E+01
   9.208774E+00   5.195897E+01
   9.183369E+00   5.196511E+01
   9.171696E+00   5.198319E+01
   9.177360E+00   5.200327E+01
   9.168949E+00   5.204763E+01
   9.179420E+00   5.208035E+01
   9.153499E+00   5.209037E+01
   9.131698E+00   5.209301E+01
   9.131870E+00   5.210840E+01
   9.155044E+00   5.211757E+01
   9.144401E+00   5.213264E+01
   9.128609E+00   5.213433E+01
   9.124832E+00   5.213707E+01
   9.107323E+00   5.213138E+01
   9.083118E+00   5.213538E+01
   9.065437E+00   5.213992E+01
   9.015484E+00   5.213149E+01
   9.010334E+00   5.213433E+01
   9.008446E+00   5.217256E+01
   8.982525E+00   5.219530E+01
   8.990078E+00   5.219772E+01
   9.013767E+00   5.219646E+01
   9.042778E+00   5.219256E+01
   9.041061E+00   5.220371E+01
   9.035396E+00   5.221791E+01
   9.035396E+00   5.222517E+01
   9.042435E+00   5.222706E+01
   9.052391E+00   5.222160E+01
   9.063721E+00   5.222685E+01
   9.074879E+00   5.223274E+01
   9.053764E+00   5.223705E+01
   9.034881E+00   5.224798E+01
   9.007072E+00   5.225156E+01
   8.970337E+00   5.226227E+01
   8.960509E+00   5.227898E+01
   8.982353E+00   5.228570E+01
   8.982868E+00   5.229578E+01
   8.987160E+00   5.231341E+01
   8.996601E+00   5.232674E+01
   9.027157E+00   5.234761E+01
   9.056682E+00   5.234111E+01
   9.057197E+00   5.234730E+01
   9.070415E+00   5.235013E+01
   9.094105E+00   5.237298E+01
   9.092388E+00   5.238660E+01
   9.111442E+00   5.239865E+01
   9.121399E+00   5.241938E+01
   9.107838E+00   5.242053E+01
   9.103546E+00   5.242692E+01
   9.092560E+00   5.244220E+01
   9.102516E+00   5.245873E+01
   9.130840E+00   5.248289E+01
   9.109897E+00   5.248445E+01
   9.073677E+00   5.249564E+01
   9.057541E+00   5.249585E+01
   9.046211E+00   5.248038E+01
   9.018059E+00   5.245643E+01
   8.992052E+00   5.244900E+01
   8.989563E+00   5.243173E+01
   8.937206E+00   5.240032E+01
   8.852749E+00   5.238796E+01
   8.786831E+00   5.239729E+01
   8.745632E+00   5.238629E+01
   8.702030E+00   5.239341E+01
   8.702888E+00   5.242210E+01
   8.701343E+00   5.244419E+01
   8.695507E+00   5.248759E+01
   8.698940E+00   5.250055E+01
   8.669414E+00   5.251580E+01
   8.651390E+00   5.252907E+01
   8.558006E+00   5.249773E+01
   8.505993E+00   5.251016E+01
   8.483505E+00   5.249564E+01
   8.465824E+00   5.249177E+01
   8.461876E+00   5.247285E+01
   8.456898E+00   5.246061E+01
   8.423080E+00   5.244220E+01
   8.360081E+00   5.244210E+01
   8.333130E+00   5.245224E+01
   8.311500E+00   5.244387E+01
   8.324032E+00   5.242671E+01
   8.329010E+00   5.240252E+01
   8.394069E+00   5.238576E+01
   8.441276E+00   5.236585E+01
   8.457928E+00   5.232968E+01
   8.473720E+00   5.231478E+01
   8.465652E+00   5.230218E+01
   8.468399E+00   5.226700E+01
   8.470287E+00   5.224683E+01
   8.462219E+00   5.222917E+01
   8.453808E+00   5.221665E+01
   8.456039E+00   5.220256E+01
   8.496895E+00   5.219193E+01
   8.523502E+00   5.218709E+01
   8.480415E+00   5.215656E+01
   8.464279E+00   5.215256E+01
   8.445225E+00   5.214908E+01
   8.412266E+00   5.213496E+01
   8.408317E+00   5.212453E+01
   8.414154E+00   5.211399E+01
   8.399906E+00   5.210809E+01
   8.390980E+00   5.210640E+01
   8.370724E+00   5.210819E+01
   8.361625E+00   5.211610E+01
   8.325233E+00   5.212316E+01
   8.314075E+00   5.211547E+01
   8.280086E+00   5.212569E+01
   8.223266E+00   5.210408E+01
   8.206444E+00   5.208889E+01
   8.196487E+00   5.207149E+01
   8.178978E+00   5.207064E+01
   8.151855E+00   5.207307E+01
   8.095722E+00   5.205576E+01
   8.029461E+00   5.206389E+01
   7.982769E+00   5.203401E+01
   7.914276E+00   5.205027E+01
   7.880630E+00   5.208457E+01
   7.971268E+00   5.211831E+01
   8.004741E+00   5.211778E+01
   7.994957E+00   5.215150E+01
   7.999935E+00   5.216077E+01
   8.016243E+00   5.216414E+01
   8.009205E+00   5.217425E+01
   7.973842E+00   5.217046E+01
   7.933330E+00   5.217530E+01
   7.905178E+00   5.218835E+01
   7.897281E+00   5.220824E+01
   7.912559E+00   5.222391E+01
   7.926636E+00   5.223978E+01
   7.920627E+00   5.225114E+01
   7.921486E+00   5.226291E+01
   7.929039E+00   5.226721E+01
   7.953586E+00   5.227257E+01
   7.928352E+00   5.228633E+01
   7.929897E+00   5.230208E+01
   7.951183E+00   5.230743E+01
   7.986202E+00   5.230459E+01
   7.988090E+00   5.230795E+01
   7.977619E+00   5.230984E+01
   7.959251E+00   5.232370E+01
   7.948780E+00   5.233167E+01
   7.930755E+00   5.236019E+01
   7.894020E+00   5.237749E+01
   7.841835E+00   5.236742E+01
   7.804584E+00   5.237036E+01
   7.723217E+00   5.239886E+01
   7.711544E+00   5.240001E+01
   7.700043E+00   5.243299E+01
   7.684421E+00   5.245528E+01
   7.667084E+00   5.245622E+01
   7.604084E+00   5.247264E+01
   7.574043E+00   5.243226E+01
   7.608204E+00   5.242189E+01
   7.606315E+00   5.241289E+01
   7.586059E+00   5.240252E+01
   7.584686E+00   5.237560E+01
   7.562027E+00   5.236816E+01
   7.531643E+00   5.236669E+01
   7.481346E+00   5.234614E+01
   7.439461E+00   5.233146E+01
   7.429161E+00   5.231341E+01
   7.351742E+00   5.228234E+01
   7.299557E+00   5.226248E+01
   7.155533E+00   5.226438E+01
   7.123947E+00   5.225996E+01
   7.105923E+00   5.224157E+01
   7.063351E+00   5.223947E+01
   7.039490E+00   5.225565E+01
   7.023656E+00   5.227514E+01
   7.023137E+00   5.227770E+01
   7.022838E+00   5.229095E+01
   7.033825E+00   5.231236E+01
   7.054939E+00   5.233943E+01
   7.069015E+00   5.235317E+01
   7.067985E+00   5.237350E+01
   7.064743E+00   5.237682E+01
END
END
