none
1
   7.370143E+00   4.916273E+01
   7.371786E+00   4.915885E+01
   7.364970E+00   4.915347E+01
   7.365149E+00   4.914247E+01
   7.334032E+00   4.913869E+01
   7.313781E+00   4.913159E+01
   7.295092E+00   4.911109E+01
   7.287249E+00   4.910807E+01
   7.278241E+00   4.911538E+01
   7.264063E+00   4.911612E+01
   7.243661E+00   4.912435E+01
   7.224662E+00   4.911982E+01
   7.208013E+00   4.911712E+01
   7.202197E+00   4.911106E+01
   7.191055E+00   4.911168E+01
   7.180678E+00   4.912254E+01
   7.169506E+00   4.912444E+01
   7.160057E+00   4.911927E+01
   7.139894E+00   4.912235E+01
   7.122547E+00   4.913624E+01
   7.109755E+00   4.913279E+01
   7.101630E+00   4.913641E+01
   7.101526E+00   4.914713E+01
   7.089427E+00   4.914399E+01
   7.095975E+00   4.912837E+01
   7.088926E+00   4.912140E+01
   7.077468E+00   4.912316E+01
   7.072475E+00   4.911924E+01
   7.071724E+00   4.911339E+01
   7.054931E+00   4.910866E+01
   7.041378E+00   4.911436E+01
   7.039357E+00   4.912288E+01
   7.041478E+00   4.913698E+01
   7.025973E+00   4.915671E+01
   7.022706E+00   4.916934E+01
   7.029338E+00   4.918621E+01
   7.010128E+00   4.918512E+01
   6.988966E+00   4.919292E+01
   6.988869E+00   4.919956E+01
   6.973817E+00   4.920704E+01
   6.956622E+00   4.919881E+01
   6.932871E+00   4.921531E+01
   6.932826E+00   4.921972E+01
   6.920875E+00   4.922013E+01
   6.897201E+00   4.920408E+01
   6.866181E+00   4.921340E+01
   6.865337E+00   4.921683E+01
   6.842860E+00   4.921255E+01
   6.855206E+00   4.920132E+01
   6.864997E+00   4.918330E+01
   6.863842E+00   4.917149E+01
   6.850242E+00   4.916463E+01
   6.847965E+00   4.915579E+01
   6.833576E+00   4.914948E+01
   6.798846E+00   4.915552E+01
   6.774948E+00   4.916321E+01
   6.760603E+00   4.916003E+01
   6.726357E+00   4.916318E+01
   6.708149E+00   4.918780E+01
   6.727024E+00   4.920666E+01
   6.721701E+00   4.921730E+01
   6.698235E+00   4.921139E+01
   6.688064E+00   4.921271E+01
   6.680878E+00   4.924711E+01
   6.652820E+00   4.925277E+01
   6.651868E+00   4.927468E+01
   6.641347E+00   4.928073E+01
   6.584067E+00   4.932024E+01
   6.584900E+00   4.932915E+01
   6.571419E+00   4.933001E+01
   6.560413E+00   4.935139E+01
   6.566592E+00   4.936292E+01
   6.586514E+00   4.935588E+01
   6.592044E+00   4.936233E+01
   6.581299E+00   4.936554E+01
   6.579240E+00   4.937976E+01
   6.570802E+00   4.938360E+01
   6.560683E+00   4.938430E+01
   6.531440E+00   4.940175E+01
   6.531645E+00   4.941230E+01
   6.541456E+00   4.941677E+01
   6.530124E+00   4.942861E+01
   6.511263E+00   4.943726E+01
   6.487768E+00   4.944730E+01
   6.451398E+00   4.946152E+01
   6.420964E+00   4.947048E+01
   6.403699E+00   4.946480E+01
   6.391253E+00   4.946349E+01
   6.374860E+00   4.946394E+01
   6.365890E+00   4.946941E+01
   6.366577E+00   4.948410E+01
   6.367435E+00   4.948876E+01
   6.365890E+00   4.949311E+01
   6.366105E+00   4.949904E+01
   6.364989E+00   4.950713E+01
   6.357908E+00   4.952234E+01
   6.354475E+00   4.953089E+01
   6.359324E+00   4.953733E+01
   6.376619E+00   4.954952E+01
   6.379538E+00   4.955331E+01
   6.379558E+00   4.955343E+01
   6.394129E+00   4.954949E+01
   6.429577E+00   4.954994E+01
   6.474380E+00   4.954476E+01
   6.495752E+00   4.953273E+01
   6.511288E+00   4.953730E+01
   6.516008E+00   4.953551E+01
   6.518927E+00   4.953145E+01
   6.538925E+00   4.954008E+01
   6.564503E+00   4.954120E+01
   6.581325E+00   4.953139E+01
   6.590289E+00   4.951793E+01
   6.615915E+00   4.953635E+01
   6.629820E+00   4.954248E+01
   6.645956E+00   4.954231E+01
   6.650076E+00   4.955016E+01
   6.652737E+00   4.955178E+01
   6.662350E+00   4.954431E+01
   6.685438E+00   4.954910E+01
   6.689644E+00   4.953763E+01
   6.706295E+00   4.955412E+01
   6.733932E+00   4.956141E+01
   6.743116E+00   4.955857E+01
   6.801653E+00   4.958913E+01
   6.814442E+00   4.959296E+01
   6.831951E+00   4.958735E+01
   6.855391E+00   4.960833E+01
   6.895981E+00   4.961683E+01
   6.930571E+00   4.961994E+01
   6.931429E+00   4.963212E+01
   6.944647E+00   4.963701E+01
   6.991253E+00   4.963651E+01
   7.012281E+00   4.963056E+01
   7.028589E+00   4.964146E+01
   7.061291E+00   4.963112E+01
   7.103348E+00   4.960570E+01
   7.120943E+00   4.959719E+01
   7.138538E+00   4.959758E+01
   7.144976E+00   4.960370E+01
   7.152958E+00   4.960465E+01
   7.175016E+00   4.960220E+01
   7.180509E+00   4.958601E+01
   7.187290E+00   4.957883E+01
   7.210464E+00   4.957833E+01
   7.220678E+00   4.956664E+01
   7.241621E+00   4.957444E+01
   7.250976E+00   4.957505E+01
   7.261619E+00   4.958568E+01
   7.270460E+00   4.958495E+01
   7.280846E+00   4.953874E+01
   7.304277E+00   4.953629E+01
   7.310629E+00   4.952337E+01
   7.308140E+00   4.951897E+01
   7.297583E+00   4.951685E+01
   7.288570E+00   4.951663E+01
   7.288999E+00   4.951273E+01
   7.285051E+00   4.950983E+01
   7.288141E+00   4.949935E+01
   7.285051E+00   4.948647E+01
   7.297497E+00   4.948385E+01
   7.306595E+00   4.947476E+01
   7.302904E+00   4.946628E+01
   7.287540E+00   4.945552E+01
   7.252951E+00   4.944564E+01
   7.256727E+00   4.944101E+01
   7.258873E+00   4.942951E+01
   7.292004E+00   4.941952E+01
   7.306337E+00   4.938779E+01
   7.324018E+00   4.938126E+01
   7.356205E+00   4.938103E+01
   7.370453E+00   4.937483E+01
   7.368050E+00   4.936538E+01
   7.395000E+00   4.937243E+01
   7.403498E+00   4.937259E+01
   7.404442E+00   4.935633E+01
   7.399807E+00   4.935320E+01
   7.404699E+00   4.934671E+01
   7.406287E+00   4.934240E+01
   7.404098E+00   4.933670E+01
   7.396974E+00   4.931460E+01
   7.383413E+00   4.929698E+01
   7.388649E+00   4.929429E+01
   7.375431E+00   4.927985E+01
   7.365475E+00   4.927761E+01
   7.344532E+00   4.928063E+01
   7.346764E+00   4.927184E+01
   7.324533E+00   4.924629E+01
   7.308569E+00   4.925094E+01
   7.294664E+00   4.922942E+01
   7.305651E+00   4.922281E+01
   7.303162E+00   4.920818E+01
   7.319813E+00   4.919225E+01
   7.339382E+00   4.918546E+01
   7.352686E+00   4.916358E+01
   7.370143E+00   4.916273E+01
END
END
