none
1
   1.475345E+01   5.159198E+01
   1.472185E+01   5.156363E+01
   1.473404E+01   5.154601E+01
   1.473627E+01   5.153117E+01
   1.480243E+01   5.152536E+01
   1.495094E+01   5.148427E+01
   1.498757E+01   5.144960E+01
   1.498939E+01   5.137327E+01
   1.499250E+01   5.134461E+01
   1.504516E+01   5.131035E+01
   1.505078E+01   5.123583E+01
   1.502117E+01   5.120425E+01
   1.501598E+01   5.117244E+01
   1.499701E+01   5.110608E+01
   1.497836E+01   5.106176E+01
   1.490178E+01   5.093087E+01
   1.483641E+01   5.088580E+01
   1.481153E+01   5.081536E+01
   1.471107E+01   5.081844E+01
   1.470760E+01   5.083119E+01
   1.463260E+01   5.084279E+01
   1.459231E+01   5.085724E+01
   1.461848E+01   5.090102E+01
   1.464210E+01   5.092208E+01
   1.455984E+01   5.090368E+01
   1.455210E+01   5.093715E+01
   1.457589E+01   5.095659E+01
   1.458498E+01   5.098168E+01
   1.455514E+01   5.100025E+01
   1.452266E+01   5.099777E+01
   1.452540E+01   5.101210E+01
   1.446386E+01   5.101399E+01
   1.446149E+01   5.102358E+01
   1.440420E+01   5.100845E+01
   1.431407E+01   5.104243E+01
   1.427493E+01   5.099271E+01
   1.432664E+01   5.099284E+01
   1.433452E+01   5.097208E+01
   1.432227E+01   5.096816E+01
   1.433140E+01   5.095376E+01
   1.441968E+01   5.093752E+01
   1.440060E+01   5.088239E+01
   1.427123E+01   5.086554E+01
   1.407845E+01   5.080040E+01
   1.397948E+01   5.079781E+01
   1.395885E+01   5.077970E+01
   1.390768E+01   5.077487E+01
   1.391232E+01   5.074065E+01
   1.384608E+01   5.071485E+01
   1.368684E+01   5.071105E+01
   1.366279E+01   5.072012E+01
   1.362166E+01   5.070791E+01
   1.356285E+01   5.070578E+01
   1.354660E+01   5.069744E+01
   1.355706E+01   5.068776E+01
   1.355387E+01   5.066474E+01
   1.353104E+01   5.065342E+01
   1.353504E+01   5.062959E+01
   1.350249E+01   5.062322E+01
   1.346726E+01   5.059048E+01
   1.340441E+01   5.061010E+01
   1.339414E+01   5.063167E+01
   1.336938E+01   5.061400E+01
   1.333414E+01   5.059850E+01
   1.333600E+01   5.057887E+01
   1.328242E+01   5.056784E+01
   1.327341E+01   5.058283E+01
   1.325251E+01   5.058203E+01
   1.323466E+01   5.053865E+01
   1.319910E+01   5.049428E+01
   1.311708E+01   5.049812E+01
   1.304098E+01   5.048758E+01
   1.302852E+01   5.043429E+01
   1.294811E+01   5.039770E+01
   1.287835E+01   5.042749E+01
   1.283353E+01   5.044527E+01
   1.281432E+01   5.042635E+01
   1.280112E+01   5.042689E+01
   1.278810E+01   5.043899E+01
   1.274678E+01   5.042799E+01
   1.271770E+01   5.040624E+01
   1.271242E+01   5.039525E+01
   1.269854E+01   5.039409E+01
   1.267133E+01   5.040722E+01
   1.251587E+01   5.038503E+01
   1.249940E+01   5.037166E+01
   1.249844E+01   5.034559E+01
   1.246687E+01   5.034338E+01
   1.245052E+01   5.033642E+01
   1.244639E+01   5.032220E+01
   1.240879E+01   5.031439E+01
   1.241315E+01   5.029536E+01
   1.239971E+01   5.028448E+01
   1.238392E+01   5.028256E+01
   1.236268E+01   5.025619E+01
   1.236448E+01   5.023848E+01
   1.234218E+01   5.023388E+01
   1.234339E+01   5.021733E+01
   1.234304E+01   5.016658E+01
   1.228694E+01   5.017165E+01
   1.226865E+01   5.019606E+01
   1.227119E+01   5.022284E+01
   1.223236E+01   5.024537E+01
   1.223705E+01   5.026372E+01
   1.219353E+01   5.027036E+01
   1.217399E+01   5.031796E+01
   1.213432E+01   5.031108E+01
   1.213307E+01   5.030017E+01
   1.212238E+01   5.031335E+01
   1.210127E+01   5.031565E+01
   1.207552E+01   5.032607E+01
   1.204548E+01   5.032179E+01
   1.199071E+01   5.034409E+01
   1.196997E+01   5.035010E+01
   1.197630E+01   5.038609E+01
   1.194591E+01   5.039397E+01
   1.191673E+01   5.042482E+01
   1.191982E+01   5.042963E+01
   1.189518E+01   5.043467E+01
   1.188026E+01   5.044627E+01
   1.190107E+01   5.045969E+01
   1.193966E+01   5.047380E+01
   1.192625E+01   5.051542E+01
   1.188300E+01   5.051559E+01
   1.186685E+01   5.054517E+01
   1.188848E+01   5.056187E+01
   1.192297E+01   5.056387E+01
   1.192137E+01   5.058662E+01
   1.195965E+01   5.060874E+01
   1.197596E+01   5.062442E+01
   1.200703E+01   5.063890E+01
   1.202539E+01   5.062725E+01
   1.201166E+01   5.061353E+01
   1.203655E+01   5.060002E+01
   1.203981E+01   5.058618E+01
   1.202574E+01   5.056492E+01
   1.203793E+01   5.055576E+01
   1.207054E+01   5.055871E+01
   1.207518E+01   5.057942E+01
   1.209645E+01   5.058337E+01
   1.212179E+01   5.057094E+01
   1.213234E+01   5.058127E+01
   1.210573E+01   5.058836E+01
   1.211346E+01   5.059839E+01
   1.214212E+01   5.060569E+01
   1.214504E+01   5.061560E+01
   1.214041E+01   5.062649E+01
   1.215397E+01   5.063313E+01
   1.216907E+01   5.063193E+01
   1.218608E+01   5.062452E+01
   1.219798E+01   5.064361E+01
   1.220650E+01   5.064271E+01
   1.221817E+01   5.063531E+01
   1.225920E+01   5.063422E+01
   1.226229E+01   5.064320E+01
   1.229490E+01   5.065561E+01
   1.231954E+01   5.068058E+01
   1.229962E+01   5.068237E+01
   1.227473E+01   5.068520E+01
   1.226014E+01   5.069553E+01
   1.224933E+01   5.071559E+01
   1.226452E+01   5.072722E+01
   1.223319E+01   5.073189E+01
   1.222358E+01   5.073830E+01
   1.222409E+01   5.074878E+01
   1.222838E+01   5.075981E+01
   1.224126E+01   5.077029E+01
   1.225036E+01   5.078803E+01
   1.224040E+01   5.080848E+01
   1.224881E+01   5.082003E+01
   1.229799E+01   5.083191E+01
   1.231052E+01   5.082166E+01
   1.233902E+01   5.082665E+01
   1.234503E+01   5.084118E+01
   1.237575E+01   5.085559E+01
   1.241541E+01   5.085971E+01
   1.243154E+01   5.084551E+01
   1.244313E+01   5.086567E+01
   1.245721E+01   5.088132E+01
   1.248184E+01   5.089405E+01
   1.250605E+01   5.090704E+01
   1.252459E+01   5.091007E+01
   1.263788E+01   5.091126E+01
   1.264784E+01   5.092046E+01
   1.262260E+01   5.093950E+01
   1.261196E+01   5.098242E+01
   1.258398E+01   5.097918E+01
   1.252356E+01   5.099734E+01
   1.250141E+01   5.101840E+01
   1.249815E+01   5.106060E+01
   1.246931E+01   5.106308E+01
   1.243000E+01   5.107549E+01
   1.241095E+01   5.106999E+01
   1.235464E+01   5.107754E+01
   1.233885E+01   5.109932E+01
   1.233335E+01   5.110104E+01
   1.232426E+01   5.109339E+01
   1.228700E+01   5.108745E+01
   1.222229E+01   5.110449E+01
   1.221851E+01   5.112335E+01
   1.223585E+01   5.113143E+01
   1.219156E+01   5.114080E+01
   1.220054E+01   5.117775E+01
   1.217234E+01   5.117880E+01
   1.217045E+01   5.118957E+01
   1.219481E+01   5.121526E+01
   1.218607E+01   5.125547E+01
   1.217045E+01   5.125633E+01
   1.216332E+01   5.126669E+01
   1.216607E+01   5.128844E+01
   1.215646E+01   5.129193E+01
   1.214496E+01   5.132031E+01
   1.219002E+01   5.133581E+01
   1.218075E+01   5.136814E+01
   1.217431E+01   5.137559E+01
   1.217053E+01   5.138512E+01
   1.217199E+01   5.141056E+01
   1.218186E+01   5.142881E+01
   1.215251E+01   5.143352E+01
   1.214496E+01   5.146481E+01
   1.216890E+01   5.147187E+01
   1.217388E+01   5.148293E+01
   1.220178E+01   5.149154E+01
   1.220092E+01   5.150014E+01
   1.218847E+01   5.150442E+01
   1.218967E+01   5.153112E+01
   1.221044E+01   5.154383E+01
   1.223104E+01   5.155381E+01
   1.223001E+01   5.156133E+01
   1.224375E+01   5.156843E+01
   1.230160E+01   5.156800E+01
   1.231705E+01   5.157851E+01
   1.233653E+01   5.158923E+01
   1.241901E+01   5.158678E+01
   1.243026E+01   5.160794E+01
   1.244519E+01   5.161210E+01
   1.251051E+01   5.160954E+01
   1.255377E+01   5.161071E+01
   1.257995E+01   5.162766E+01
   1.262698E+01   5.162958E+01
   1.264260E+01   5.162324E+01
   1.266312E+01   5.163416E+01
   1.266312E+01   5.164119E+01
   1.268148E+01   5.166340E+01
   1.270466E+01   5.166553E+01
   1.274448E+01   5.165989E+01
   1.276628E+01   5.164998E+01
   1.278929E+01   5.166766E+01
   1.282774E+01   5.168373E+01
   1.284645E+01   5.168735E+01
   1.289829E+01   5.166638E+01
   1.290018E+01   5.165030E+01
   1.296472E+01   5.165435E+01
   1.296095E+01   5.166872E+01
   1.299408E+01   5.167085E+01
   1.301691E+01   5.166755E+01
   1.303253E+01   5.164263E+01
   1.305347E+01   5.165009E+01
   1.308540E+01   5.161759E+01
   1.312180E+01   5.162377E+01
   1.316025E+01   5.160107E+01
   1.318909E+01   5.155776E+01
   1.321209E+01   5.152402E+01
   1.320196E+01   5.148630E+01
   1.318548E+01   5.147433E+01
   1.320591E+01   5.145978E+01
   1.320642E+01   5.144727E+01
   1.320231E+01   5.143561E+01
   1.322153E+01   5.140038E+01
   1.328041E+01   5.140285E+01
   1.328127E+01   5.141109E+01
   1.331989E+01   5.143999E+01
   1.336727E+01   5.143892E+01
   1.338478E+01   5.144877E+01
   1.340178E+01   5.145679E+01
   1.342855E+01   5.143561E+01
   1.346512E+01   5.142929E+01
   1.349413E+01   5.140863E+01
   1.352297E+01   5.140595E+01
   1.352881E+01   5.138346E+01
   1.357189E+01   5.138839E+01
   1.358974E+01   5.138710E+01
   1.360640E+01   5.137178E+01
   1.366751E+01   5.137735E+01
   1.369085E+01   5.137682E+01
   1.372501E+01   5.136696E+01
   1.374321E+01   5.136385E+01
   1.375196E+01   5.137349E+01
   1.381119E+01   5.137446E+01
   1.382921E+01   5.138496E+01
   1.390543E+01   5.138517E+01
   1.395298E+01   5.139953E+01
   1.397358E+01   5.139621E+01
   1.397427E+01   5.137703E+01
   1.399658E+01   5.137478E+01
   1.399281E+01   5.138989E+01
   1.401341E+01   5.140670E+01
   1.403641E+01   5.141987E+01
   1.403212E+01   5.143603E+01
   1.405083E+01   5.144481E+01
   1.402954E+01   5.147358E+01
   1.403744E+01   5.148224E+01
   1.407263E+01   5.147443E+01
   1.407023E+01   5.149368E+01
   1.408911E+01   5.149987E+01
   1.409511E+01   5.151440E+01
   1.411124E+01   5.152611E+01
   1.413700E+01   5.154601E+01
   1.422232E+01   5.154110E+01
   1.426832E+01   5.153513E+01
   1.433166E+01   5.152039E+01
   1.438385E+01   5.154367E+01
   1.444204E+01   5.154708E+01
   1.444513E+01   5.155893E+01
   1.449629E+01   5.156106E+01
   1.454195E+01   5.156341E+01
   1.453886E+01   5.157622E+01
   1.456856E+01   5.158475E+01
   1.458263E+01   5.158294E+01
   1.459980E+01   5.157462E+01
   1.460684E+01   5.156608E+01
   1.461147E+01   5.155263E+01
   1.463877E+01   5.155648E+01
   1.467670E+01   5.155776E+01
   1.469095E+01   5.157739E+01
   1.469147E+01   5.159819E+01
   1.471035E+01   5.160021E+01
   1.475345E+01   5.159198E+01
END
END
