none
1
   9.618824E+00   5.485545E+01
   9.617687E+00   5.485427E+01
   9.737218E+00   5.482923E+01
   9.746014E+00   5.482728E+01
   9.746835E+00   5.482721E+01
   9.753249E+00   5.482587E+01
   9.757568E+00   5.482635E+01
   1.003590E+01   5.480388E+01
   1.113464E+01   5.463093E+01
   1.167572E+01   5.443970E+01
   1.179931E+01   5.430851E+01
   1.112778E+01   5.408155E+01
   1.091320E+01   5.395780E+01
   1.091217E+01   5.393032E+01
   1.096899E+01   5.391597E+01
   1.097225E+01   5.390666E+01
   1.094822E+01   5.389453E+01
   1.089998E+01   5.389443E+01
   1.088779E+01   5.391728E+01
   1.075441E+01   5.384149E+01
   1.078016E+01   5.379741E+01
   1.077656E+01   5.377570E+01
   1.076849E+01   5.375632E+01
   1.081364E+01   5.374485E+01
   1.081793E+01   5.372658E+01
   1.085586E+01   5.370961E+01
   1.088539E+01   5.371053E+01
   1.093019E+01   5.370148E+01
   1.095852E+01   5.366885E+01
   1.095852E+01   5.364698E+01
   1.093088E+01   5.358639E+01
   1.091560E+01   5.356713E+01
   1.083921E+01   5.356050E+01
   1.083080E+01   5.351276E+01
   1.069365E+01   5.345198E+01
   1.063786E+01   5.344840E+01
   1.062120E+01   5.338282E+01
   1.060198E+01   5.336315E+01
   1.058189E+01   5.335690E+01
   1.056524E+01   5.336018E+01
   1.055666E+01   5.336725E+01
   1.050190E+01   5.337094E+01
   1.047409E+01   5.337964E+01
   1.042311E+01   5.339623E+01
   1.036972E+01   5.342191E+01
   1.032543E+01   5.342355E+01
   1.030329E+01   5.343316E+01
   1.023617E+01   5.348192E+01
   1.021574E+01   5.349907E+01
   1.021007E+01   5.351459E+01
   1.018673E+01   5.351010E+01
   1.015926E+01   5.352112E+01
   1.014793E+01   5.353388E+01
   1.014416E+01   5.354551E+01
   1.014347E+01   5.356550E+01
   1.014810E+01   5.357885E+01
   1.016029E+01   5.358843E+01
   1.018105E+01   5.359581E+01
   1.017784E+01   5.365056E+01
   1.013722E+01   5.367715E+01
   1.014810E+01   5.371031E+01
   1.008647E+01   5.371570E+01
   1.007367E+01   5.367735E+01
   9.999835E+00   5.367711E+01
   9.988879E+00   5.364570E+01
   9.919074E+00   5.365006E+01
   9.888425E+00   5.361650E+01
   9.824697E+00   5.357737E+01
   9.761807E+00   5.361630E+01
   9.746873E+00   5.358396E+01
   9.736808E+00   5.354902E+01
   9.642048E+00   5.356964E+01
   9.532392E+00   5.361069E+01
   9.472088E+00   5.370904E+01
   9.408314E+00   5.373020E+01
   9.324528E+00   5.383111E+01
   9.266892E+00   5.385881E+01
   9.099854E+00   5.386763E+01
   8.905865E+00   5.386354E+01
   8.736425E+00   5.394465E+01
   7.464580E+00   5.398708E+01
   7.492871E+00   5.426000E+01
   7.688125E+00   5.456096E+01
   8.073674E+00   5.514634E+01
   8.082764E+00   5.514492E+01
   8.505336E+00   5.505835E+01
   8.614893E+00   5.492555E+01
   8.614891E+00   5.492455E+01
   8.615785E+00   5.492447E+01
   8.615870E+00   5.492437E+01
   8.624728E+00   5.492370E+01
   8.670574E+00   5.491974E+01
   8.674935E+00   5.491796E+01
   8.713305E+00   5.490027E+01
   8.778759E+00   5.490659E+01
   8.830604E+00   5.491353E+01
   8.991623E+00   5.490800E+01
   9.245681E+00   5.485843E+01
   9.262932E+00   5.482140E+01
   9.360180E+00   5.481918E+01
   9.378204E+00   5.484104E+01
   9.411678E+00   5.484539E+01
   9.431248E+00   5.483283E+01
   9.466781E+00   5.483807E+01
   9.491610E+00   5.484524E+01
   9.588000E+00   5.488828E+01
   9.632250E+00   5.488446E+01
   9.639296E+00   5.488159E+01
   9.618575E+00   5.485551E+01
   9.618824E+00   5.485545E+01
END
END
