none
1
   9.912525E+00   5.138008E+01
   9.941923E+00   5.138352E+01
   9.957194E+00   5.139774E+01
   1.000204E+01   5.141135E+01
   1.000301E+01   5.142571E+01
   1.005149E+01   5.144128E+01
   1.013658E+01   5.144158E+01
   1.015379E+01   5.145276E+01
   1.017209E+01   5.144989E+01
   1.017912E+01   5.147873E+01
   1.020554E+01   5.149111E+01
   1.023027E+01   5.147873E+01
   1.028214E+01   5.149579E+01
   1.029911E+01   5.151201E+01
   1.035995E+01   5.155725E+01
   1.036601E+01   5.159220E+01
   1.044453E+01   5.159615E+01
   1.050452E+01   5.157402E+01
   1.051652E+01   5.156007E+01
   1.056800E+01   5.156873E+01
   1.059741E+01   5.158340E+01
   1.062915E+01   5.158052E+01
   1.062799E+01   5.161850E+01
   1.066437E+01   5.163388E+01
   1.067327E+01   5.164229E+01
   1.072243E+01   5.165069E+01
   1.077391E+01   5.165237E+01
   1.086390E+01   5.163700E+01
   1.089060E+01   5.162114E+01
   1.093047E+01   5.162090E+01
   1.094711E+01   5.160901E+01
   1.094595E+01   5.158977E+01
   1.090415E+01   5.158665E+01
   1.090647E+01   5.155922E+01
   1.095834E+01   5.153949E+01
   1.095601E+01   5.152962E+01
   1.094285E+01   5.152769E+01
   1.095524E+01   5.150071E+01
   1.098350E+01   5.148047E+01
   1.097808E+01   5.146420E+01
   1.098853E+01   5.143477E+01
   1.107058E+01   5.143429E+01
   1.116715E+01   5.141256E+01
   1.122560E+01   5.141908E+01
   1.128636E+01   5.141039E+01
   1.132797E+01   5.141800E+01
   1.134229E+01   5.139868E+01
   1.140312E+01   5.138678E+01
   1.140758E+01   5.134820E+01
   1.143368E+01   5.134584E+01
   1.143608E+01   5.132932E+01
   1.148552E+01   5.129907E+01
   1.145279E+01   5.126337E+01
   1.141754E+01   5.123871E+01
   1.138664E+01   5.122774E+01
   1.140038E+01   5.121162E+01
   1.144775E+01   5.121549E+01
   1.149616E+01   5.116944E+01
   1.148724E+01   5.115093E+01
   1.146389E+01   5.114016E+01
   1.148827E+01   5.110762E+01
   1.157410E+01   5.112335E+01
   1.166714E+01   5.111495E+01
   1.170181E+01   5.109662E+01
   1.170971E+01   5.107506E+01
   1.174953E+01   5.106988E+01
   1.175915E+01   5.105434E+01
   1.178593E+01   5.105629E+01
   1.188721E+01   5.106103E+01
   1.198952E+01   5.101700E+01
   1.197956E+01   5.099582E+01
   1.200565E+01   5.099777E+01
   1.202110E+01   5.098848E+01
   1.202145E+01   5.097464E+01
   1.209183E+01   5.098070E+01
   1.214985E+01   5.096924E+01
   1.218315E+01   5.097918E+01
   1.221886E+01   5.095951E+01
   1.229095E+01   5.102779E+01
   1.224461E+01   5.103665E+01
   1.225186E+01   5.105194E+01
   1.225937E+01   5.107808E+01
   1.230194E+01   5.110223E+01
   1.233627E+01   5.110611E+01
   1.235996E+01   5.109878E+01
   1.237688E+01   5.108842E+01
   1.242725E+01   5.108239E+01
   1.245953E+01   5.108864E+01
   1.251240E+01   5.106578E+01
   1.251549E+01   5.103298E+01
   1.254776E+01   5.102391E+01
   1.254879E+01   5.100382E+01
   1.260990E+01   5.100015E+01
   1.263050E+01   5.098588E+01
   1.263771E+01   5.094675E+01
   1.266106E+01   5.092295E+01
   1.265749E+01   5.090157E+01
   1.251995E+01   5.089827E+01
   1.251532E+01   5.089156E+01
   1.249111E+01   5.089102E+01
   1.246605E+01   5.088029E+01
   1.246965E+01   5.087087E+01
   1.245438E+01   5.086469E+01
   1.244493E+01   5.084074E+01
   1.241713E+01   5.083641E+01
   1.240545E+01   5.084811E+01
   1.237696E+01   5.084736E+01
   1.235292E+01   5.083532E+01
   1.235018E+01   5.082155E+01
   1.229387E+01   5.081212E+01
   1.225799E+01   5.080355E+01
   1.225851E+01   5.079237E+01
   1.228992E+01   5.079324E+01
   1.229422E+01   5.077750E+01
   1.226812E+01   5.075872E+01
   1.224083E+01   5.076013E+01
   1.223104E+01   5.074113E+01
   1.227061E+01   5.073807E+01
   1.227464E+01   5.072696E+01
   1.227276E+01   5.069515E+01
   1.232649E+01   5.068406E+01
   1.232099E+01   5.066252E+01
   1.230297E+01   5.064924E+01
   1.227121E+01   5.063781E+01
   1.226795E+01   5.062954E+01
   1.223208E+01   5.062529E+01
   1.220135E+01   5.063259E+01
   1.219328E+01   5.061288E+01
   1.218126E+01   5.060983E+01
   1.216770E+01   5.061560E+01
   1.215723E+01   5.062682E+01
   1.214882E+01   5.060263E+01
   1.211809E+01   5.059512E+01
   1.211397E+01   5.058999E+01
   1.216461E+01   5.058781E+01
   1.216101E+01   5.057255E+01
   1.214092E+01   5.057092E+01
   1.212942E+01   5.057245E+01
   1.212496E+01   5.056536E+01
   1.211449E+01   5.056405E+01
   1.209698E+01   5.057800E+01
   1.208324E+01   5.057681E+01
   1.208015E+01   5.055478E+01
   1.206179E+01   5.055096E+01
   1.202917E+01   5.054638E+01
   1.201458E+01   5.056841E+01
   1.202660E+01   5.057997E+01
   1.202951E+01   5.059174E+01
   1.199501E+01   5.061059E+01
   1.193613E+01   5.058411E+01
   1.192944E+01   5.055467E+01
   1.189201E+01   5.054987E+01
   1.187656E+01   5.054038E+01
   1.188703E+01   5.052118E+01
   1.193149E+01   5.052947E+01
   1.193699E+01   5.051277E+01
   1.196917E+01   5.048755E+01
   1.196402E+01   5.047870E+01
   1.195330E+01   5.045297E+01
   1.189845E+01   5.044865E+01
   1.189708E+01   5.044007E+01
   1.193150E+01   5.043455E+01
   1.192643E+01   5.042460E+01
   1.186635E+01   5.039911E+01
   1.182129E+01   5.038674E+01
   1.178953E+01   5.041033E+01
   1.176785E+01   5.040132E+01
   1.167070E+01   5.038652E+01
   1.162619E+01   5.037986E+01
   1.157085E+01   5.038232E+01
   1.151550E+01   5.036850E+01
   1.151085E+01   5.038578E+01
   1.147640E+01   5.039417E+01
   1.143828E+01   5.041723E+01
   1.140461E+01   5.045372E+01
   1.141080E+01   5.050741E+01
   1.133145E+01   5.050274E+01
   1.133068E+01   5.048131E+01
   1.129585E+01   5.047121E+01
   1.126411E+01   5.046974E+01
   1.126643E+01   5.045039E+01
   1.128269E+01   5.043018E+01
   1.129314E+01   5.035443E+01
   1.127456E+01   5.027026E+01
   1.124746E+01   5.025814E+01
   1.120760E+01   5.027942E+01
   1.119018E+01   5.026358E+01
   1.116541E+01   5.026309E+01
   1.111161E+01   5.030390E+01
   1.114644E+01   5.032688E+01
   1.109729E+01   5.034887E+01
   1.103342E+01   5.033578E+01
   1.099298E+01   5.033887E+01
   1.092679E+01   5.038010E+01
   1.088925E+01   5.037393E+01
   1.087570E+01   5.038208E+01
   1.079519E+01   5.036949E+01
   1.074565E+01   5.034652E+01
   1.074101E+01   5.032033E+01
   1.081184E+01   5.029265E+01
   1.085732E+01   5.027657E+01
   1.086235E+01   5.024267E+01
   1.082713E+01   5.022708E+01
   1.079094E+01   5.023785E+01
   1.074333E+01   5.023586E+01
   1.073946E+01   5.019971E+01
   1.068411E+01   5.020342E+01
   1.059896E+01   5.022175E+01
   1.058425E+01   5.027175E+01
   1.057903E+01   5.032231E+01
   1.048343E+01   5.034702E+01
   1.044240E+01   5.038368E+01
   1.037892E+01   5.038368E+01
   1.031177E+01   5.048218E+01
   1.021771E+01   5.051221E+01
   1.022081E+01   5.052526E+01
   1.013876E+01   5.053584E+01
   1.011205E+01   5.055010E+01
   1.005341E+01   5.051197E+01
   1.002477E+01   5.051197E+01
   1.003367E+01   5.057297E+01
   1.002477E+01   5.061842E+01
   1.006735E+01   5.063733E+01
   1.004141E+01   5.066825E+01
   9.963809E+00   5.065770E+01
   9.982775E+00   5.063831E+01
   9.948714E+00   5.061646E+01
   9.866659E+00   5.063266E+01
   9.863176E+00   5.067315E+01
   9.915041E+00   5.072929E+01
   9.914654E+00   5.078500E+01
   9.945618E+00   5.083416E+01
   1.002187E+01   5.088058E+01
   9.928200E+00   5.092793E+01
   9.931297E+00   5.095293E+01
   1.002109E+01   5.095585E+01
   1.000368E+01   5.098145E+01
   1.003348E+01   5.102334E+01
   1.013411E+01   5.101823E+01
   1.017669E+01   5.100971E+01
   1.019681E+01   5.103332E+01
   1.013682E+01   5.105157E+01
   1.013256E+01   5.109438E+01
   1.010353E+01   5.114576E+01
   1.020997E+01   5.117270E+01
   1.020920E+01   5.118253E+01
   1.005670E+01   5.122279E+01
   1.002729E+01   5.126906E+01
   9.964390E+00   5.128044E+01
   9.927233E+00   5.130997E+01
   9.912525E+00   5.138008E+01
END
END
