<?xml version="1.0" encoding="ISO-8859-1" standalone="no"?>
<!DOCTYPE svg PUBLIC "-//W3C//DTD SVG 1.1//EN" "http://www.w3.org/Graphics/SVG/1.1/DTD/svg11.dtd">
<svg version="1.1" baseProfile="full" id="body" width="8in" height="8in" viewBox="0 0 1 1" preserveAspectRatio="none" xmlns="http://www.w3.org/2000/svg" xmlns:xlink="http://www.w3.org/1999/xlink" xmlns:ev="http://www.w3.org/2001/xml-events">
<title>SVG drawing</title>
<desc>This was produced by version 4.4 of GNU libplot, a free library for exporting 2-D vector graphics.</desc>
<rect id="background" x="0" y="0" width="1" height="1" stroke="none" fill="white"/>
<g id="content" transform="translate(-0.03125,1.1875) scale(1,-1) scale(0.0017361) " xml:space="preserve" stroke="black" stroke-linecap="butt" stroke-linejoin="miter" stroke-miterlimit="10.433" stroke-dasharray="none" stroke-dashoffset="0" stroke-opacity="1" fill="none" fill-rule="evenodd" fill-opacity="1" font-style="normal" font-variant="normal" font-weight="normal" font-stretch="normal" font-size-adjust="none" letter-spacing="normal" word-spacing="normal" text-anchor="start">
<path d="M296.52,467.35 L298.71,467.3 L300.87,467.13 L303,466.86 L305.09,466.49 L307.15,466.01 L309.17,465.44 L311.14,464.77 L313.07,464.01 L314.96,463.16 L316.79,462.22 L318.57,461.2 L320.3,460.09 L321.96,458.91 L323.57,457.64 L325.11,456.31 L326.59,454.9 L328,453.42 L329.33,451.88 L330.6,450.27 L331.78,448.61 L332.89,446.88 L333.91,445.1 L334.85,443.27 L335.7,441.38 L336.46,439.45 L337.13,437.48 L337.7,435.46 L338.18,433.4 L338.55,431.31 L338.82,429.18 L338.99,427.02 L339.04,424.83 C339.04,401.35,320.01,382.31,296.52,382.31 C273.04,382.31,254,401.35,254,424.83 C254,448.32,273.04,467.35,296.52,467.35 Z " stroke="#ff1721" stroke-width="0" fill="#ff1721" fill-rule="nonzero" />
<path d="M296.53,453.18 L297.25,453.18 L297.96,453.15 L298.68,453.11 L299.38,453.04 L300.09,452.97 L300.79,452.87 L301.48,452.76 L302.17,452.63 L302.86,452.48 L303.54,452.31 L304.22,452.13 L304.9,451.93 L305.57,451.72 L306.24,451.48 L306.9,451.23 L307.56,450.96 C310.95,449.53,313.95,447.5,316.57,444.88 C319.19,442.26,321.22,439.25,322.65,435.86 C324.13,432.36,324.88,428.69,324.88,424.84 C324.88,420.98,324.13,417.31,322.65,413.8 C321.22,410.42,319.19,407.41,316.57,404.79 C313.95,402.17,310.95,400.14,307.56,398.71 C304.05,397.23,300.38,396.49,296.53,396.49 C292.68,396.49,289,397.23,285.5,398.71 C282.11,400.14,279.11,402.17,276.48,404.79 C273.86,407.41,271.84,410.42,270.4,413.8 C268.92,417.31,268.18,420.98,268.18,424.84 C268.18,428.69,268.92,432.36,270.4,435.86 C271.84,439.25,273.86,442.26,276.48,444.88 C279.11,447.5,282.11,449.53,285.5,450.96 C289,452.44,292.68,453.18,296.53,453.18 Z " stroke="white" stroke-width="0" fill="white" fill-rule="nonzero" />
<path d="M271.72,422.41 H279.55 L279.54,432.62 L314.21,432.63 L314.24,421.38 H304.39 H304.39 C304.38,421.42,304.38,421.48,304.38,421.52 C304.12,425.37,300.79,428.2,296.95,428.21 C293.1,428.22,289.74,425.4,289.45,421.54 C289.45,421.49,289.45,421.43,289.45,421.38 H289.45 H271.72 V422.41 Z " stroke-width="0" fill="black" fill-rule="nonzero" />
<path d="M291.2,420.69 H290.15 H290.15 C290.15,420.94,290.15,421.3,290.18,421.55 C290.49,424.99,293.47,427.51,296.9,427.51 C300.32,427.51,303.21,424.94,303.65,421.53 C303.68,421.28,303.7,420.93,303.71,420.69 H303.71 H302.64 H302.64 C302.62,420.93,302.6,421.28,302.56,421.52 C302.12,424.33,299.74,426.42,296.92,426.43 C294.08,426.44,291.61,424.38,291.25,421.55 C291.22,421.3,291.2,420.94,291.2,420.69 Z " stroke-width="0" fill="black" fill-rule="nonzero" />
<path d="M296.91,425.71 L297.17,425.7 L297.42,425.68 L297.67,425.65 L297.92,425.61 L298.16,425.55 L298.4,425.48 L298.63,425.4 L298.86,425.31 L299.08,425.21 L299.29,425.1 L299.5,424.98 L299.71,424.85 L299.9,424.71 L300.09,424.57 L300.28,424.41 L300.45,424.24 L300.62,424.07 L300.77,423.89 L300.92,423.7 L301.06,423.5 L301.19,423.3 L301.31,423.09 L301.43,422.87 L301.53,422.65 L301.62,422.42 L301.7,422.19 L301.77,421.95 L301.82,421.71 L301.87,421.47 L301.9,421.22 L301.92,420.96 L301.93,420.7 C301.95,417.91,299.7,415.62,296.91,415.62 C294.13,415.62,291.89,417.9,291.91,420.7 C291.91,423.47,294.15,425.71,296.91,425.71 Z " stroke-width="0" fill="black" fill-rule="nonzero" />
<path d="M296.91,422.36 L296.99,422.35 L297.08,422.35 L297.16,422.34 L297.24,422.32 L297.32,422.3 L297.4,422.28 L297.48,422.25 L297.55,422.22 L297.63,422.19 L297.7,422.15 L297.77,422.11 L297.84,422.07 L297.9,422.02 L297.97,421.97 L298.03,421.92 L298.09,421.87 L298.14,421.81 L298.2,421.75 L298.25,421.69 L298.29,421.62 L298.34,421.55 L298.38,421.48 L298.42,421.41 L298.45,421.34 L298.48,421.26 L298.51,421.18 L298.53,421.1 L298.55,421.02 L298.56,420.94 L298.58,420.86 L298.58,420.77 L298.59,420.69 C298.59,419.75,297.84,419,296.92,418.99 C295.98,418.98,295.21,419.75,295.21,420.69 C295.23,421.62,295.98,422.36,296.91,422.36 Z " stroke="white" stroke-width="0" fill="white" fill-rule="nonzero" />
</g>
</svg>
